<?xml version="1.0" encoding="UTF-8" standalone="no"?>
<!-- Created with Inkscape (http://www.inkscape.org/) -->

<svg
   xmlns:dc="http://purl.org/dc/elements/1.1/"
   xmlns:cc="http://creativecommons.org/ns#"
   xmlns:rdf="http://www.w3.org/1999/02/22-rdf-syntax-ns#"
   xmlns:svg="http://www.w3.org/2000/svg"
   xmlns="http://www.w3.org/2000/svg"
   xmlns:xlink="http://www.w3.org/1999/xlink"
   xmlns:sodipodi="http://sodipodi.sourceforge.net/DTD/sodipodi-0.dtd"
   xmlns:inkscape="http://www.inkscape.org/namespaces/inkscape"
   id="svg2647"
   sodipodi:docname="biswajyotim-net.svg"
   viewBox="0 0 250.38 261.51"
   sodipodi:version="0.32"
   version="1.0"
   inkscape:output_extension="org.inkscape.output.svg.inkscape"
   inkscape:version="0.92.5 (2060ec1f9f, 2020-04-08)"
   inkscape:export-filename="/home/pierre/projects/volley/build/net.png"
   inkscape:export-xdpi="110.14876"
   inkscape:export-ydpi="110.14876">
  <defs
     id="defs2649">
    <linearGradient
       id="linearGradient3292"
       y2="281.36"
       xlink:href="#linearGradient3274"
       gradientUnits="userSpaceOnUse"
       x2="234.7"
       y1="281.36"
       x1="216.6"
       inkscape:collect="always" />
    <linearGradient
       id="linearGradient3274"
       inkscape:collect="always">
      <stop
         id="stop3276"
         style="stop-color:#a02c2c"
         offset="0" />
      <stop
         id="stop3278"
         style="stop-color:#a02c2c;stop-opacity:0"
         offset="1" />
    </linearGradient>
    <linearGradient
       inkscape:collect="always"
       xlink:href="#linearGradient3274"
       id="linearGradient4565"
       gradientUnits="userSpaceOnUse"
       x1="216.6"
       y1="281.36"
       x2="234.7"
       y2="281.36" />
  </defs>
  <sodipodi:namedview
     id="base"
     bordercolor="#666666"
     inkscape:pageshadow="2"
     guidetolerance="10"
     pagecolor="#ffffff"
     gridtolerance="10000"
     inkscape:window-height="624"
     inkscape:zoom="0.35"
     objecttolerance="10"
     borderopacity="1.0"
     inkscape:current-layer="layer1"
     inkscape:cx="-205"
     inkscape:cy="520"
     inkscape:window-y="25"
     inkscape:window-x="0"
     inkscape:window-width="907"
     inkscape:pageopacity="0.0"
     inkscape:document-units="px"
     showgrid="false"
     inkscape:window-maximized="0" />
  <g
     id="layer1"
     inkscape:label="Layer 1"
     inkscape:groupmode="layer"
     transform="translate(-239.09 -115.89)">
    <g
       id="g3631"
       inkscape:export-ydpi="300"
       inkscape:export-xdpi="300"
       inkscape:export-filename="/home/biswa/Desktop/Image for Rahul Book/created by Biswa/Biswa-Net.png"
       transform="matrix(-0.71849,0,0,0.66879,645.14015,74.919)">
      <g
         id="g3282"
         transform="matrix(1,0,0,0.75496,0,36.118)">
        <path
           id="path2385"
           sodipodi:nodetypes="cccsc"
           style="fill:#e9afaf;fill-rule:evenodd;stroke:#000000;stroke-width:1px"
           d="m 220.18,81.857 16.96,-0.923 2.86,397.15 c 0,0 -25.54,11.38 -22.68,-5.76 2.86,-17.14 3.82,-386.55 2.86,-390.46 z"
           inkscape:connector-curvature="0" />
        <path
           id="path2387"
           sodipodi:nodetypes="cccsc"
           style="fill:url(#linearGradient4565);fill-rule:evenodd;stroke:#000000;stroke-width:1px"
           d="m 220.18,81.857 16.96,-0.923 2.86,397.15 c 0,0 -25.54,11.38 -22.68,-5.76 2.86,-17.14 3.82,-386.55 2.86,-390.46 z"
           inkscape:connector-curvature="0" />
      </g>
      <path
         id="path3296"
         sodipodi:nodetypes="csssssssssss"
         style="fill:none;stroke:#000000;stroke-width:3"
         d="m 229.78,125.05 c 71.56,8.98 131.75,19.24 246.18,-2.73 25.44,-4.89 35.61,-2.79 53.34,-20.52 21.91,-21.907 25.02,-2.356 21.89,16.42 -5,29.95 -4.55,61.12 -2.74,91.63 2.98,50.12 8.87,52.08 -41.03,56.08 -36.31,2.91 -105.87,9.09 -147.71,-1.37 -22.79,-5.7 -30.55,-7.6 -58.81,-12.31 -18.71,-3.12 -60.13,-20.51 -69.76,-20.51 -9.84,0 -1.36,-18.88 -1.36,-28.73 0,-21.44 3.62,-35.72 0,-57.44 -2.09,-12.51 -2.54,-19.25 5.47,-23.25"
         inkscape:connector-curvature="0" />
      <path
         id="path3298"
         sodipodi:nodetypes="csssssssssss"
         style="fill:none;stroke:#000000;stroke-width:0.95306998px"
         d="m 229.75,130.21 c 71.57,8.16 131.77,17.48 246.23,-2.48 25.44,-4.44 35.61,-2.53 53.34,-18.63 21.92,-19.902 25.02,-2.15 21.89,14.9 -4.99,27.21 -4.55,55.51 -2.73,83.23 2.98,45.51 8.87,47.29 -41.04,50.93 -36.31,2.64 -105.88,8.26 -147.74,-1.25 -22.78,-5.17 -30.55,-6.9 -58.82,-11.18 -18.71,-2.83 -60.13,-18.63 -69.76,-18.63 -9.84,0 -1.37,-17.14 -1.37,-26.08 0,-19.47 3.62,-32.45 0,-52.17 -2.08,-11.37 -2.53,-17.49 5.47,-21.12"
         inkscape:connector-curvature="0" />
      <path
         id="path3300"
         sodipodi:nodetypes="csssssssssss"
         style="fill:none;stroke:#000000;stroke-width:0.88663px"
         d="m 229.72,137.09 c 71.59,7.06 131.8,15.12 246.27,-2.15 25.45,-3.84 35.63,-2.19 53.36,-16.12 21.92,-17.22 25.02,-1.85 21.89,12.9 -4.99,23.54 -4.55,48.03 -2.73,72.01 2.98,39.38 8.87,40.92 -41.05,44.07 -36.32,2.28 -105.9,7.14 -147.76,-1.08 -22.79,-4.47 -30.56,-5.97 -58.83,-9.67 -18.72,-2.45 -60.15,-16.12 -69.78,-16.12 -9.85,0 -1.37,-14.84 -1.37,-22.57 0,-16.85 3.62,-28.08 0,-45.15 -2.09,-9.83 -2.53,-15.12 5.47,-18.27"
         inkscape:connector-curvature="0" />
      <path
         id="path3302"
         sodipodi:nodetypes="csssssssssss"
         style="fill:none;stroke:#000000;stroke-width:0.81479001px"
         d="m 229.68,143.97 c 71.61,5.96 131.83,12.76 246.33,-1.82 25.45,-3.24 35.63,-1.84 53.37,-13.61 21.93,-14.54 25.03,-1.56 21.9,10.89 -5,19.88 -4.55,40.56 -2.74,60.8 2.99,33.25 8.88,34.56 -41.05,37.21 -36.33,1.93 -105.93,6.03 -147.8,-0.91 -22.8,-3.78 -30.56,-5.04 -58.84,-8.17 -18.72,-2.06 -60.16,-13.61 -69.8,-13.61 -9.84,0 -1.37,-12.53 -1.37,-19.06 0,-14.22 3.63,-23.7 0,-38.11 -2.08,-8.3 -2.53,-12.77 5.48,-15.43"
         inkscape:connector-curvature="0" />
      <path
         id="path3304"
         sodipodi:nodetypes="csssssssssss"
         style="fill:none;stroke:#000000;stroke-width:0.73596001px"
         d="m 229.65,150.84 c 71.62,4.86 131.86,10.42 246.38,-1.48 25.46,-2.64 35.64,-1.5 53.39,-11.1 21.93,-11.86 25.03,-1.28 21.9,8.88 -5,16.22 -4.56,33.08 -2.74,49.6 2.99,27.12 8.88,28.18 -41.06,30.34 -36.34,1.58 -105.96,4.93 -147.84,-0.74 -22.8,-3.08 -30.57,-4.11 -58.86,-6.66 -18.72,-1.69 -60.17,-11.1 -69.8,-11.1 -9.85,0 -1.37,-10.22 -1.37,-15.55 0,-11.6 3.62,-19.33 0,-31.08 -2.09,-6.77 -2.54,-10.42 5.47,-12.59"
         inkscape:connector-curvature="0" />
      <path
         id="path3306"
         sodipodi:nodetypes="csssssssssss"
         style="fill:none;stroke:#000000;stroke-width:0.64762002px"
         d="m 229.6,157.71 c 71.64,3.77 131.9,8.07 246.46,-1.14 25.46,-2.05 35.65,-1.17 53.4,-8.6 21.93,-9.18 25.03,-0.98 21.9,6.88 -5,12.55 -4.55,25.61 -2.74,38.39 2.99,21 8.88,21.82 -41.07,23.49 -36.35,1.22 -105.98,3.81 -147.87,-0.57 -22.81,-2.38 -30.59,-3.18 -58.88,-5.16 -18.73,-1.3 -60.19,-8.59 -69.83,-8.59 -9.85,0 -1.37,-7.91 -1.37,-12.03 0,-8.99 3.63,-14.97 0,-24.07 -2.08,-5.24 -2.53,-8.07 5.48,-9.74"
         inkscape:connector-curvature="0" />
      <path
         id="path3308"
         sodipodi:nodetypes="csssssssssss"
         style="fill:none;stroke:#000000;stroke-width:0.54516px"
         d="m 229.55,164.58 c 71.66,2.67 131.94,5.71 246.53,-0.81 25.48,-1.45 35.66,-0.83 53.42,-6.09 21.94,-6.5 25.05,-0.7 21.91,4.87 -5,8.89 -4.55,18.14 -2.74,27.2 2.99,14.87 8.89,15.45 -41.08,16.64 -36.36,0.87 -106.02,2.7 -147.92,-0.4 -22.82,-1.69 -30.59,-2.26 -58.9,-3.66 -18.73,-0.92 -60.21,-6.09 -69.85,-6.09 -9.85,0 -1.37,-5.6 -1.37,-8.52 0,-6.36 3.63,-10.6 0,-17.05 -2.09,-3.71 -2.53,-5.71 5.48,-6.9"
         inkscape:connector-curvature="0" />
      <path
         id="path3310"
         sodipodi:nodetypes="csssssssssss"
         style="fill:none;stroke:#000000;stroke-width:0.41841999px"
         d="m 229.49,171.44 c 71.69,1.57 131.99,3.36 246.63,-0.48 25.48,-0.85 35.67,-0.48 53.43,-3.58 21.95,-3.83 25.06,-0.41 21.93,2.87 -5.01,5.23 -4.56,10.68 -2.74,16.01 2.98,8.76 8.88,9.1 -41.11,9.8 -36.37,0.51 -106.05,1.59 -147.97,-0.24 -22.83,-0.99 -30.61,-1.33 -58.92,-2.15 -18.74,-0.55 -60.23,-3.59 -69.88,-3.59 -9.86,0 -1.37,-3.29 -1.37,-5.01 0,-3.75 3.63,-6.25 0,-10.04 -2.09,-2.19 -2.54,-3.37 5.48,-4.07"
         inkscape:connector-curvature="0" />
      <path
         id="path3312"
         sodipodi:nodetypes="csssssssssss"
         style="fill:none;stroke:#000000;stroke-width:0.27114001px"
         d="m 236.6,178.64 c 70.57,0.66 129.59,1.41 247.08,-0.2 26.12,-0.36 36.05,-0.2 56.08,-1.5 24.76,-1.61 25.37,-0.18 19.84,1.2 -8.83,2.2 -12.37,4.48 -14.44,6.72 -3.42,3.68 2.24,3.82 -48.29,4.11 -36.76,0.22 -107.26,0.67 -147.87,-0.1 -22.1,-0.41 -29.64,-0.55 -57.37,-0.9 -18.35,-0.23 -57.64,-1.5 -67.28,-1.5 -9.87,0 1.04,-1.39 2.29,-2.11 2.74,-1.57 8.19,-2.62 7.34,-4.21 -0.49,-0.92 -0.08,-1.42 8.45,-1.71"
         inkscape:connector-curvature="0" />
      <path
         id="path3316"
         sodipodi:nodetypes="cssc"
         style="fill:none;stroke:#000000;stroke-width:1px"
         d="m 351.06,135.69 c 0.46,3.64 6.48,15.43 6.94,19.08 2.73,21.88 18.83,55.43 28.72,75.22 6.39,12.78 17.44,30.69 26.6,39.85"
         inkscape:connector-curvature="0" />
      <path
         id="path3318"
         sodipodi:nodetypes="cssc"
         style="fill:none;stroke:#000000;stroke-width:1px"
         d="m 235.78,126.26 c 0.45,3.64 0.91,4.72 1.36,8.37 2.74,21.88 18.83,55.43 28.73,75.22 6.38,12.77 13.57,29.83 22.74,38.99"
         inkscape:connector-curvature="0" />
      <path
         id="path3320"
         sodipodi:nodetypes="cssc"
         style="fill:none;stroke:#000000;stroke-width:1px"
         d="m 384.35,134.69 c 0.45,3.64 5.19,21.86 5.65,25.51 2.73,21.88 20.54,54.15 30.44,73.94 6.38,12.77 12.72,26.4 21.88,35.56"
         inkscape:connector-curvature="0" />
      <path
         id="path3322"
         sodipodi:nodetypes="cssc"
         style="fill:none;stroke:#000000;stroke-width:1px"
         d="m 253.78,127.69 c 0.45,3.64 0.91,7.29 1.36,10.94 2.74,21.88 18.83,55.43 28.73,75.22 6.38,12.77 13.57,28.97 22.74,38.13"
         inkscape:connector-curvature="0" />
      <path
         id="path3324"
         sodipodi:nodetypes="cssc"
         style="fill:none;stroke:#000000;stroke-width:1px"
         d="m 391.06,134.46 c -3.19,5.47 -8.1,25.52 -11.29,30.99 -12.7,21.76 -22.72,11.15 -33.91,48.1 -2.58,8.5 -4.37,36.6 -6.41,44.76"
         inkscape:connector-curvature="0" />
      <path
         id="path3326"
         sodipodi:nodetypes="cssc"
         style="fill:none;stroke:#000000;stroke-width:1px"
         d="m 414.34,131.89 c -1.71,5.47 -5.13,17.8 -6.83,23.27 -6.77,21.77 -24.43,36.11 -27.77,58.81 -4.38,29.81 2.68,44.33 2.86,52.48"
         inkscape:connector-curvature="0" />
      <path
         id="path3328"
         sodipodi:nodetypes="css"
         style="fill:none;stroke:#000000;stroke-width:1px"
         d="m 277.34,130.18 c -3.19,5.47 -7.66,12.65 -10.86,18.12 -12.69,21.77 -28.72,40.73 -39.91,63.1"
         inkscape:connector-curvature="0" />
      <path
         id="path3330"
         sodipodi:nodetypes="cssc"
         style="fill:none;stroke:#000000;stroke-width:1px"
         d="m 438.97,128.46 c -0.95,5.47 -3.2,14.37 -4.16,19.84 -3.82,21.77 -17.71,36.44 -19.77,58.82 -0.73,7.95 -1.08,53.32 0.2,61.47"
         inkscape:connector-curvature="0" />
      <path
         id="path3332"
         sodipodi:nodetypes="cs"
         style="fill:none;stroke:#000000;stroke-width:1px"
         d="m 256.06,129.89 c -3.19,5.47 -22.24,40.94 -25.43,46.41"
         inkscape:connector-curvature="0" />
      <path
         id="path3334"
         sodipodi:nodetypes="csc"
         style="fill:none;stroke:#000000;stroke-width:1px"
         d="m 477.38,121.89 c -1.24,5.47 -2.48,6.66 -3.72,12.13 -4.92,21.76 -37.98,54.71 -31.11,134.43"
         inkscape:connector-curvature="0" />
      <path
         id="path3336"
         sodipodi:nodetypes="cs"
         style="fill:none;stroke:#000000;stroke-width:1px"
         d="m 514.57,112.77 c 2.73,21.89 20.11,64 30.01,83.8"
         inkscape:connector-curvature="0" />
      <path
         id="path3338"
         sodipodi:nodetypes="cc"
         style="fill:none;stroke:#000000;stroke-width:1px"
         d="m 230.44,180.14 c 6.38,12.77 22.15,52.11 31.31,61.27"
         inkscape:connector-curvature="0" />
      <path
         id="path3340"
         sodipodi:nodetypes="cssc"
         style="fill:none;stroke:#000000;stroke-width:1px"
         d="m 327.92,135.26 c 0.45,3.64 3.48,11.58 3.94,15.22 2.73,21.89 18.82,55.44 28.72,75.23 6.38,12.77 22.58,33.26 31.74,42.42"
         inkscape:connector-curvature="0" />
      <path
         id="path3359"
         sodipodi:nodetypes="cssc"
         style="fill:none;stroke:#000000;stroke-width:1px"
         d="m 463.77,124.54 c 0.46,3.65 0.92,7.3 1.37,10.94 2.74,21.89 18.83,55.44 28.72,75.23 6.39,12.77 25.58,43.54 34.74,52.7"
         inkscape:connector-curvature="0" />
      <path
         id="path3361"
         sodipodi:nodetypes="cssc"
         style="fill:none;stroke:#000000;stroke-width:1px"
         d="m 306.49,133.4 c 0.46,3.65 2.2,11.58 2.65,15.23 2.74,21.88 18.83,55.43 28.73,75.22 6.38,12.77 21.29,33.26 30.45,42.42"
         inkscape:connector-curvature="0" />
      <path
         id="path3363"
         sodipodi:nodetypes="cssc"
         style="fill:none;stroke:#000000;stroke-width:1px"
         d="m 292.92,132.83 c 0.45,3.65 1.77,14.15 2.22,17.8 2.74,21.88 18.83,55.43 28.73,75.22 6.38,12.77 12.72,26.4 21.88,35.56"
         inkscape:connector-curvature="0" />
      <path
         id="path3365"
         sodipodi:nodetypes="cssc"
         style="fill:none;stroke:#000000;stroke-width:1px"
         d="m 277.2,131.54 c 0.46,3.65 -2.51,3.44 -2.06,7.09 2.74,21.88 18.83,55.43 28.73,75.22 6.38,12.77 13.57,33.26 22.74,42.42"
         inkscape:connector-curvature="0" />
      <path
         id="path3367"
         sodipodi:nodetypes="cssc"
         style="fill:none;stroke:#000000;stroke-width:1px"
         d="m 543.77,101.46 c -3.19,5.48 -20.53,17.8 -23.72,23.27 -12.69,21.77 -17.57,44.15 -28.76,66.53 -3.98,7.95 -12.09,66.61 -14.13,74.76"
         inkscape:connector-curvature="0" />
      <path
         id="path3369"
         sodipodi:nodetypes="cssc"
         style="fill:none;stroke:#000000;stroke-width:1px"
         d="m 293.77,132.75 c -3.19,5.47 -2.09,10.08 -5.29,15.55 -12.69,21.77 -32.57,36.44 -43.76,58.82 -3.98,7.95 -1.37,18.18 -3.41,26.33"
         inkscape:connector-curvature="0" />
      <path
         id="path3371"
         sodipodi:nodetypes="cssc"
         style="fill:none;stroke:#000000;stroke-width:1px"
         d="m 370.2,134.89 c -3.19,5.47 -8.52,7.94 -11.72,13.41 -12.69,21.77 -37.16,34.68 -43.76,58.82 -5.69,20.8 0.77,37.46 -1.27,45.62"
         inkscape:connector-curvature="0" />
      <path
         id="path3373"
         sodipodi:nodetypes="cssc"
         style="fill:none;stroke:#000000;stroke-width:1px"
         d="m 320.2,133.61 c -3.19,5.47 -3.38,9.65 -6.57,15.12 -12.7,21.77 -32.58,36.44 -43.77,58.82 -3.98,7.95 -3.09,25.03 -5.12,33.19"
         inkscape:connector-curvature="0" />
      <path
         id="path3375"
         sodipodi:nodetypes="cssc"
         style="fill:none;stroke:#000000;stroke-width:1px"
         d="m 341.2,135.89 c -3.19,5.47 -5.52,4.94 -8.72,10.41 -12.69,21.77 -32.57,36.44 -43.76,58.82 -3.98,7.95 -0.52,33.61 -2.56,41.76"
         inkscape:connector-curvature="0" />
      <path
         id="path3377"
         sodipodi:nodetypes="cs"
         style="fill:none;stroke:#000000;stroke-width:1px"
         d="m 241.63,125.75 c -3.19,5.47 -9.38,17.37 -12.57,22.84"
         inkscape:connector-curvature="0" />
      <path
         id="path3379"
         sodipodi:nodetypes="cssc"
         style="fill:none;stroke:#000000;stroke-width:1px"
         d="m 409.49,132.69 c 0.45,3.64 15.48,41.58 15.94,45.22 2.73,21.89 19.25,34.86 29.15,54.66 6.38,12.77 12.72,26.4 21.88,35.56"
         inkscape:connector-curvature="0" />
      <path
         id="path3381"
         sodipodi:nodetypes="cssc"
         style="fill:none;stroke:#000000;stroke-width:1px"
         d="m 436.06,129.11 c 0.45,3.65 11.62,30.87 12.08,34.52 2.74,21.88 18.4,44.29 28.29,64.08 6.39,12.77 16.58,28.54 25.74,37.7"
         inkscape:connector-curvature="0" />
      <path
         id="path3383"
         sodipodi:nodetypes="cssc"
         style="fill:none;stroke:#000000;stroke-width:1px"
         d="m 489.78,120.26 c 0.45,3.64 0.91,4.72 1.36,8.37 2.74,21.88 18.83,55.43 28.73,75.22 6.38,12.77 15.29,30.69 24.45,39.85"
         inkscape:connector-curvature="0" />
      <g
         id="g3286"
         transform="matrix(1.0571,0,0,0.97276,310.98,-16.897)">
        <path
           id="path3288"
           sodipodi:nodetypes="cccsc"
           style="fill:#e9afaf;fill-rule:evenodd;stroke:#000000;stroke-width:1px"
           d="m 220.18,81.857 16.96,-0.923 2.86,397.15 c 0,0 -25.54,11.38 -22.68,-5.76 2.86,-17.14 3.82,-386.55 2.86,-390.46 z"
           inkscape:connector-curvature="0" />
        <path
           id="path3290"
           sodipodi:nodetypes="cccsc"
           style="fill:url(#linearGradient3292);fill-rule:evenodd;stroke:#000000;stroke-width:1px"
           d="m 220.29,80.892 16.85,0.042 2.86,397.15 c 0,0 -25.54,11.38 -22.68,-5.76 2.86,-17.14 3.93,-387.52 2.97,-391.43 z"
           inkscape:connector-curvature="0" />
      </g>
    </g>
  </g>
  <metadata
     id="metadata51">
    <rdf:RDF>
      <cc:Work>
        <dc:format>image/svg+xml</dc:format>
        <dc:type
           rdf:resource="http://purl.org/dc/dcmitype/StillImage" />
        <cc:license
           rdf:resource="http://creativecommons.org/publicdomain/zero/1.0/" />
        <dc:publisher>
          <cc:Agent
             rdf:about="http://openclipart.org/">
            <dc:title>Openclipart</dc:title>
          </cc:Agent>
        </dc:publisher>
        <dc:title>net</dc:title>
        <dc:date>2007-09-03T15:35:04</dc:date>
        <dc:description />
        <dc:source>https://openclipart.org/detail/5164/net-by-biswajyotim</dc:source>
        <dc:creator>
          <cc:Agent>
            <dc:title>biswajyotim</dc:title>
          </cc:Agent>
        </dc:creator>
        <dc:subject>
          <rdf:Bag>
            <rdf:li>cartoon</rdf:li>
            <rdf:li>net</rdf:li>
            <rdf:li>sport</rdf:li>
            <rdf:li>volleyball</rdf:li>
          </rdf:Bag>
        </dc:subject>
      </cc:Work>
      <cc:License
         rdf:about="http://creativecommons.org/licenses/publicdomain/">
        <cc:permits
           rdf:resource="http://creativecommons.org/ns#Reproduction" />
        <cc:permits
           rdf:resource="http://creativecommons.org/ns#Distribution" />
        <cc:permits
           rdf:resource="http://creativecommons.org/ns#DerivativeWorks" />
      </cc:License>
    </rdf:RDF>
  </metadata>
</svg>
