<?xml version="1.0" encoding="UTF-8" standalone="no"?>
<!-- Created with Inkscape (http://www.inkscape.org/) -->

<svg
   xmlns:dc="http://purl.org/dc/elements/1.1/"
   xmlns:cc="http://creativecommons.org/ns#"
   xmlns:rdf="http://www.w3.org/1999/02/22-rdf-syntax-ns#"
   xmlns:svg="http://www.w3.org/2000/svg"
   xmlns="http://www.w3.org/2000/svg"
   xmlns:xlink="http://www.w3.org/1999/xlink"
   xmlns:sodipodi="http://sodipodi.sourceforge.net/DTD/sodipodi-0.dtd"
   xmlns:inkscape="http://www.inkscape.org/namespaces/inkscape"
   id="svg2"
   sodipodi:docname="rg1024-beach.svg"
   inkscape:export-filename="/home/pierre/projects/volley/build/beach.png"
   viewBox="0 0 1200 719.99997"
   sodipodi:version="0.32"
   inkscape:export-xdpi="96"
   version="1.0"
   inkscape:output_extension="org.inkscape.output.svg.inkscape"
   inkscape:export-ydpi="96"
   inkscape:version="0.92.5 (2060ec1f9f, 2020-04-08)"
   width="1200"
   height="720">
  <sodipodi:namedview
     id="base"
     bordercolor="#666666"
     inkscape:pageshadow="2"
     inkscape:window-y="25"
     pagecolor="#ffffff"
     inkscape:window-height="1149"
     inkscape:zoom="1"
     inkscape:window-x="0"
     showgrid="false"
     borderopacity="1.0"
     inkscape:current-layer="layer1"
     inkscape:cx="67.72835"
     inkscape:cy="422.50104"
     inkscape:window-width="1920"
     inkscape:pageopacity="1"
     inkscape:document-units="px"
     inkscape:window-maximized="1" />
  <defs
     id="defs4">
    <filter
       id="filter3036"
       inkscape:collect="always">
      <feGaussianBlur
         id="feGaussianBlur3038"
         stdDeviation="1.5956014"
         inkscape:collect="always" />
    </filter>
    <linearGradient
       id="linearGradient2998">
      <stop
         id="stop3000"
         style="stop-color:#be894f"
         offset="0" />
      <stop
         id="stop3002"
         style="stop-color:#553b1f"
         offset="1" />
    </linearGradient>
    <linearGradient
       id="linearGradient3049">
      <stop
         id="stop3051"
         style="stop-color:#638225"
         offset="0" />
      <stop
         id="stop3053"
         style="stop-color:#bad681"
         offset="1" />
    </linearGradient>
    <linearGradient
       id="linearGradient4734"
       y2="564.38"
       xlink:href="#linearGradient3049"
       gradientUnits="userSpaceOnUse"
       x2="227.28"
       gradientTransform="matrix(2.3398,0.71802,-0.83126,2.1415,-1023.7,-2176.4)"
       y1="564.38"
       x1="163.62"
       inkscape:collect="always" />
    <linearGradient
       id="linearGradient4736"
       y2="564.38"
       xlink:href="#linearGradient3049"
       gradientUnits="userSpaceOnUse"
       x2="227.28"
       gradientTransform="matrix(1.2613,1.3795,-1.5394,1.1721,-432.4,-1848.4)"
       y1="564.38"
       x1="163.62"
       inkscape:collect="always" />
    <linearGradient
       id="linearGradient4738"
       y2="564.38"
       xlink:href="#linearGradient3049"
       gradientUnits="userSpaceOnUse"
       x2="227.28"
       gradientTransform="matrix(2.4736,0.15693,-0.21671,2.2532,-1336.1,-2166.5)"
       y1="564.38"
       x1="163.62"
       inkscape:collect="always" />
    <linearGradient
       id="linearGradient4880"
       y2="-2266.3"
       gradientUnits="userSpaceOnUse"
       x2="728.56"
       gradientTransform="matrix(0.18232752,0,0,1.1123367,468.80167,2327.2654)"
       y1="-1510.7"
       x1="728.56"
       inkscape:collect="always">
      <stop
         id="stop4876"
         style="stop-color:#fffffe"
         offset="0" />
      <stop
         id="stop4878"
         style="stop-color:#fffffe;stop-opacity:0"
         offset="1" />
    </linearGradient>
    <linearGradient
       inkscape:collect="always"
       xlink:href="#linearGradient2998"
       id="linearGradient913"
       gradientUnits="userSpaceOnUse"
       gradientTransform="translate(-419.21,-67.68)"
       x1="783.04999"
       y1="975.63"
       x2="794.71002"
       y2="556.5" />
    <filter
       inkscape:collect="always"
       id="filter3036-3">
      <feGaussianBlur
         inkscape:collect="always"
         stdDeviation="1.5956014"
         id="feGaussianBlur3038-6" />
    </filter>
  </defs>
  <g
     id="layer1"
     inkscape:label="Capa 1"
     inkscape:groupmode="layer"
     transform="translate(-38.291,388.31999)">
    <path
       id="rect4360"
       style="fill:#729fcf;stroke-width:1.22161496"
       d="m 38.344805,42.594 v 218.25633 h 79.795465 c 21.93187,5.36757 48.25971,8.49865 76.56935,8.49865 25.93149,0 50.19347,-2.62166 70.93625,-7.18161 25.13877,12.8598 66.1439,21.24663 112.49388,21.24663 47.88738,0 90.14164,-8.9708 115.00416,-22.56367 h 4.99653 c 27.57697,9.16959 64.13808,14.74839 104.2304,14.74839 40.09231,0 76.65342,-5.5788 104.2304,-14.74839 h 71.46472 c 25.37899,11.61731 64.33026,19.05984 107.9778,19.05984 41.70177,0 79.04359,-6.82129 104.42257,-17.544 23.32517,6.57279 52.47557,10.52391 84.11217,10.52391 34.0869,0 65.2791,-4.52267 89.409,-12.03975 h 74.1912 V 42.594 L 38.34,42.599 Z"
       inkscape:connector-curvature="0" />
    <rect
       style="fill:#729fcf;fill-opacity:1;stroke:none;stroke-width:0.8669219;stroke-linecap:round;stroke-linejoin:round;stroke-miterlimit:4;stroke-dasharray:none;stroke-opacity:1"
       id="rect911"
       width="1200.2399"
       height="430.79312"
       x="38.344814"
       y="-388.19913"
       ry="2.5731983" />
    <rect
       id="rect4864"
       style="fill:url(#linearGradient4880);stroke-width:2.24954391"
       height="624.87708"
       width="1200.2937"
       y="-388.19913"
       x="38.291" />
    <path
       id="path4898"
       style="opacity:0.57746002;fill:none;stroke:#fffeff"
       d="m 317.56,258.26 c 6.83,1.81 12.86,-6.02 19.59,-2.68 4.66,1.85 10.69,5.84 15.61,2.68"
       inkscape:connector-curvature="0" />
    <path
       id="path4918"
       d="m 1421.5,-757.81 c -0.6,0.09 -1.3,0.59 -2.2,1.5 -16.6,16.57 -38.6,51.72 -61.8,94.75 8.4,-31.33 12.9,-56.68 11.3,-70.97 -0.4,-3.96 -3.8,-1.3 -8.8,5.72 -0.7,-0.96 -1.8,-0.67 -3.3,1.09 -9,10.3 -19.4,27.23 -30.4,48.44 -0.4,-3.16 -1,-5.95 -1.8,-8.31 -1.7,-5.47 -8.9,5.77 -16.7,24.46 1.8,-16.24 2.1,-29.38 0.4,-38.15 -2.1,-10.81 -22.6,29.45 -35.9,73.31 -0.7,-10.24 -2.2,-18.46 -4.5,-24.16 -3.5,-8.56 -17.3,26.22 -25.5,65.5 -2.8,-1.45 -5.9,5.03 -8.4,15.82 -2.1,-7.23 -4.5,-12.95 -7.3,-16.85 -1.3,-1.75 -2.8,-0.77 -4.5,2.25 -1.3,-9.61 -3.4,-14.98 -5.7,-12.43 -3.6,4.1 -7.1,10.99 -10.3,20.03 -2.2,-31.21 -9.2,-59.15 -12.9,-52.57 -2.4,4.21 -4.3,10.27 -6,17.85 -6,-31.62 -16.1,-58.52 -18.7,-50.78 -3.1,9.1 -4.2,24.45 -3.9,43.68 -0.1,-0.3 -0.1,-0.63 -0.2,-0.93 -11.6,-40.76 -34.8,-82.4 -35.7,-70.78 -1.2,16.62 4.7,46.87 14.4,82.46 -12.6,-22.68 -24.2,-40.18 -33.4,-48.5 -7,-6.34 0.1,27.03 13.9,60.29 -1.9,-2.11 -3.7,-4.03 -5.5,-5.79 -5.9,-11.4 -10.9,-17.41 -12.5,-13.65 -2.7,6.02 -4,15.37 -4,27.25 -16.3,-37.14 -37.2,-68.88 -38.8,-59.85 -1.1,5.77 -0.9,13.64 0.4,23.29 -21.2,-36.53 -45.4,-66.15 -45.2,-56.04 0.2,11.9 5.6,30.82 14.4,54 -0.3,-0.34 -0.5,-0.71 -0.7,-1.06 -32.11,-45.95 -78.8,-89.65 -74.79,-75.34 5.75,20.48 26.31,55.42 53.79,95.69 -25.37,-23.82 -47.29,-41.64 -62.22,-49.04 -11.41,-5.64 11.93,32.71 43.43,68.94 -9.97,-6.09 -18.63,-10.46 -25.47,-12.69 -5.64,-1.83 -1.29,6.6 8.85,19.6 -22.11,-13.14 -38.44,-20.17 -35.81,-14.44 2.47,5.4 7.33,12.15 14.15,20 -40.39,-23.32 -79.39,-39.49 -73.25,-30.81 7.23,10.2 23.16,24.47 44.66,41.09 -0.42,-0.2 -0.83,-0.42 -1.25,-0.62 -55.65,-27.22 -122.92,-46.78 -110.91,-35.97 17.19,15.48 56.01,37.66 104.16,61.78 -36.57,-10.7 -66.55,-17.57 -84.19,-18.13 -13.47,-0.42 29.87,23.65 79.25,42.69 -12.46,-1.37 -22.71,-1.81 -30.09,-1.06 -10.36,1.05 22.33,16.5 63.37,30.03 2.86,3.81 8.05,8.3 15.13,13.31 -0.74,0.08 -1.46,0.17 -2.16,0.25 -34.18,-9.89 -65.56,-15.04 -60.06,-9.93 3.66,3.39 9.52,7.24 17.25,11.46 -37.94,-8.03 -72.43,-11.16 -64.94,-6.18 8.82,5.85 25.51,12.74 47.13,20.09 -0.38,-0.06 -0.78,-0.13 -1.16,-0.19 -50.62,-7.48 -107.31,-6.79 -94.72,-1.56 18.02,7.49 54.38,15.04 98.38,21.94 -30.85,0.33 -55.49,2.03 -68.82,5.56 -10.17,2.69 30.21,10.6 73.41,13.5 -9.75,1.78 -17.53,3.77 -22.78,5.97 -9.95,4.16 47.48,10.03 95.03,7.22 -13.66,3.52 -23.95,7.14 -29.59,10.81 -6.07,3.95 27.14,5.7 62.92,3.06 -10.1,4.29 -17.39,8.42 -20.96,12.28 -0.39,0.43 -0.46,0.83 -0.25,1.16 -11.1,8.37 -17.05,18.8 -18.71,30.13 -17.17,6.64 -27.44,12.47 -22.91,14.15 5.29,1.97 13.34,2.94 23.47,3.1 0.34,1.68 0.76,3.37 1.25,5.06 -42.1,15.4 -78.44,34.56 -68.81,35.87 7.67,1.05 19.15,0.28 33.56,-1.9 -42.83,19.97 -78.52,42.6 -67.35,42.25 7.14,-0.23 16.69,-1.8 28.22,-4.6 -41.42,23.79 -74.08,48.69 -61.84,46.66 10.64,-1.76 25.55,-6.51 43.47,-13.44 -244.9,155.32 -502.23,320.95 -691.63,434.69 -25.23,14.54 -48.61,28.42 -71.09,42.06 -20.464,11.91 -39.925,23.07 -57.969,33.13 0.274,0.73 0.513,1.35 0.781,2.06 -0.417,0.26 -0.833,0.52 -1.25,0.78 17.375,39.06 27.92,50.47 69.718,68.63 0.73,-0.52 1.52,-1.08 2.25,-1.6 0.13,0.07 0.24,0.13 0.38,0.19 2.23,-1.74 4.54,-3.54 6.84,-5.31 35.63,-25.27 74.57,-52.86 117.41,-84.94 -0.38,-0.1 -0.75,-0.18 -1.13,-0.28 2.15,-1.52 4.29,-3.06 6.47,-4.6 0.31,0.09 0.62,0.2 0.94,0.29 12.85,-9.42 26.16,-19.05 39.81,-28.82 163.51,-113.63 379.53,-255.17 581.31,-391.37 13.67,-6.37 42.82,-25.52 70.22,-47.63 -6.03,9.13 -10.2,16.86 -11.97,22.75 -3.35,11.19 51.84,-29.82 88.27,-69.81 -7.2,13.63 -11.5,24.71 -11.8,32.09 -0.3,5.95 16.5,-6.59 36.1,-26.06 4.6,-0.33 10.3,-1.72 16.8,-3.97 -0.2,3.43 0,6.4 0.7,8.82 0.1,0.42 0.3,0.72 0.6,0.9 -25.8,26.41 -43.8,51.39 -35.2,49.25 7.5,-1.86 17.6,-6.7 29.4,-13.87 -27.8,33.23 -47.7,66.25 -37.8,61.87 6.3,-2.79 14.1,-7.7 23,-14.37 -24.4,36.09 -40.3,69.992 -30.3,63.747 11.7,-7.347 27.5,-22.327 45.6,-42.157 -0.2,0.37 -0.4,0.73 -0.6,1.09 -27.7,49.001 -44.9,106.24 -32.9,94.942 17.2,-16.18 40.4,-50.804 65,-93.282 -9.4,31.138 -14.8,56.384 -13.8,70.72 0.8,10.947 25.9,-27.647 44.3,-70.38 -0.5,10.28 0,18.64 1.6,24.5 3,10.459 27.5,-38.82 39.6,-85.18 0.8,-0.86 1.7,-1.82 2.5,-2.88 1.1,11.9 3.2,21.16 6.5,26.91 1.9,3.41 6,-2.38 10.5,-13.28 4.1,25.35 10.3,43.62 14.1,38.31 3.9,-5.57 7.1,-14.63 9.7,-26.38 8,39.06 21.6,73.456 25.2,64.75 2.3,-5.55 3.8,-13.4 4.6,-23.12 12.9,39.142 30.3,71.905 32.3,61.875 2.3,-11.8 1.1,-31.257 -2.5,-55.435 0.2,0.37 0.3,0.75 0.5,1.12 21.5,50.027 57.8,99.882 57,85.159 -1.3,-21.077 -13.8,-58.513 -32,-102.25 19.7,27.16 37.3,47.934 50.3,57.374 10,7.208 -4.6,-34.044 -27.6,-74.374 8.4,7.45 15.9,13.01 22.1,16.19 9.9,5.05 -8.3,-32.97 -34.2,-69.16 0,-0.09 0.1,-0.18 0.1,-0.28 0.8,-2.32 1.1,-5.27 1,-8.75 6.2,3.74 11.8,6.45 16.4,7.84 0.6,0.19 1.1,0.21 1.5,0.1 15,16.02 28.2,26.55 28.3,21.75 0.1,-5.01 -2,-12.16 -5.8,-20.91 24.1,23.89 50,42.85 48.3,35.84 -1.1,-4.47 -3.7,-10.25 -7.8,-17.09 27.6,22.4 55.2,39.09 51.8,31.69 -3.9,-8.72 -14,-21.52 -28.1,-36.72 0.3,0.2 0.6,0.42 0.9,0.62 38.8,27.04 87.8,49.32 80.2,39.63 -10.9,-13.87 -37.4,-35.23 -70.9,-59.06 26.6,12.16 48.7,20.63 62.3,22.9 10.3,1.74 -19.4,-21.56 -54.6,-41.56 9.4,2.37 17.3,3.78 23.1,3.97 11.1,0.35 -34.5,-28 -77,-44.72 13.9,2.41 24.9,3.36 32,2.41 7.6,-1.03 -19.8,-15.96 -52,-28.07 3.9,0.1 7.4,0.06 10.6,-0.09 27.1,8.4 50.5,12 49.2,6.81 -2.1,-8.33 -13.7,-19.08 -31.3,-31.03 46.3,15.59 108.7,23.67 103.5,16.13 -4.4,-6.18 -15.2,-13.32 -30.6,-21.04 50,9.18 104.7,11.18 97.1,4.91 -5.5,-4.45 -15.3,-9.2 -28.4,-14.09 48.5,3.3 93.2,1.01 84,-3.91 -5.9,-3.14 -14.8,-6.24 -26.1,-9.28 50.1,-0.54 94,-6.08 82.7,-10.09 -13.3,-4.73 -36.7,-8.59 -66.3,-11.66 0.4,-0.03 0.9,-0.06 1.4,-0.09 65.5,-4.67 135.2,-20.94 117.5,-23.88 -25.3,-4.2 -73.3,-3.51 -130.3,0.06 37.9,-8.79 67.6,-17.52 82.6,-25.43 11.4,-6.05 -41.7,-4.72 -96.1,3.5 11.2,-4.82 20.1,-9.34 25.6,-13.44 8.9,-6.52 -41.2,-1.6 -91.6,9.81 -3.4,-0.43 -7.2,-0.81 -11.2,-1.12 49,-9.5 90.5,-22.76 78.3,-24.63 -14.3,-2.2 -38.3,-1.71 -68.2,0.63 0.4,-0.13 1,-0.22 1.4,-0.35 57.1,-14.73 115,-39.35 111.8,-43.59 -0.3,-0.44 -1.3,-0.62 -3,-0.6 -25.9,0.46 -72.8,9.68 -127.9,23.38 34.8,-15.33 61.7,-29.1 74.2,-39.47 8.9,-7.31 -34.5,1.36 -81.6,16.69 40.6,-21.49 75.7,-47.91 62.9,-45.1 -19.8,4.38 -53.7,18.68 -92.8,37.63 23.2,-17.04 40.6,-31.68 47.8,-41.5 5.5,-7.5 -31.7,8.74 -66.9,30.16 5.9,-6.6 10.2,-12.3 12.4,-16.75 3.4,-6.98 -29.1,10.26 -59.5,32.21 -2.6,-0.47 -5.6,-0.58 -8.9,-0.37 1.9,-3.56 3.3,-6.71 3.8,-9.31 1,-4.26 -11.4,2.41 -27.4,13.97 -2.8,0.81 -5.7,1.69 -8.7,2.68 0.3,-0.75 0.5,-1.51 0.6,-2.22 0.1,-0.36 0.1,-0.63 -0.1,-0.87 36.2,-26.8 69,-63.22 58.9,-62.66 -8.8,0.5 -21.8,5.28 -37.5,13.16 33.7,-32.37 61.8,-71.31 51.3,-68.44 -7.4,2.05 -17.3,7.15 -28.9,14.6 26.6,-33.87 45.4,-67.34 35.6,-62.72 -6.3,2.94 -13.8,8.03 -22.5,14.9 23.1,-36.63 37.8,-70.85 28.1,-64.37 -11.5,7.62 -26.8,22.94 -44.2,43.19 0.2,-0.38 0.4,-0.72 0.6,-1.1 23.9,-45.73 38.6,-98.27 31.7,-97.12 z m -28.4,385.12 c -0.1,0.17 -0.1,0.34 -0.2,0.5 -0.2,-0.06 -0.4,-0.12 -0.6,-0.19 0.3,-0.1 0.5,-0.2 0.8,-0.31 z m -95.8,82.35 c 1.7,0.5 3.5,1.02 5.4,1.56 -1.3,0.42 -2.1,1.07 -2.4,1.94 -1.1,-1.27 -2.1,-2.44 -3,-3.5 z"
       style="fill:#c8c8c8;filter:url(#filter3036);fill-opacity:1"
       transform="matrix(0.09015769,0.0055986,-0.03607118,0.028591,147.25967,293.63)"
       inkscape:connector-curvature="0" />
    <g
       id="g4713"
       transform="matrix(0.22036782,0,0,0.20362766,338.73682,201.38759)">
      <path
         id="path4602"
         style="opacity:0.87999998;fill:#3f553c"
         d="m -826.21,-1436 c -0.74,0 -1.65,0.7 -2.75,2.2 -16.9,23.2 -37.38,71 -58,129.2 5.08,-41.5 6.65,-74.8 2.7,-93.2 -3.01,-14 -24.86,39.1 -38.08,96.7 -1.43,-13.3 -3.58,-24 -6.6,-31.4 -5.71,-13.9 -26.96,62.4 -30.62,126.6 -3.88,-18.8 -8.59,-33.1 -14.21,-41.1 -6.05,-8.7 -15.32,35.7 -17.12,84 -5.94,-14.1 -12.11,-24.4 -18.41,-29.7 -2.1,-1.7 -3.9,0.3 -5.4,4.9 -10.7,-27.1 -22,-45.7 -25.4,-39.7 -4.8,8.4 -6.7,23.3 -6.4,42.7 -19.8,-51.4 -51.3,-101.7 -54.1,-90.3 -1.9,8.2 -1.6,20.5 0.7,35.8 -26.1,-45.8 -56.3,-84 -56.5,-72.2 -0.1,7.6 1.6,17.8 4.9,30.1 -31.6,-44.3 -65.4,-79.4 -63.2,-66.3 2.5,15.3 12.3,39 27,67.8 -0.4,-0.4 -0.7,-0.9 -1,-1.3 -46,-55 -108.6,-105.3 -101.2,-87.4 10.6,25.7 41,68.1 80.6,116.4 -34,-27.4 -62.8,-47.4 -81.6,-55 -14.3,-5.8 20,40.6 63.5,83.2 -12.7,-6.5 -23.5,-11 -31.9,-13 -15.8,-3.7 39.5,55.4 94.6,94.7 -19.1,-7.8 -34.7,-12.5 -45.3,-13 -11.3,-0.4 22.8,31.7 64.8,60.6 -16.1,-3.7 -29,-5 -37.6,-3.3 -6.9,1.3 8.2,15 32.1,30.7 5.2,7.5 12.2,15.7 21,24.6 -50.4,-27.4 -120.8,-47.6 -116.2,-37 3.8,8.7 14.8,19.7 31.1,32.1 -55.8,-19.7 -118.6,-30.7 -111,-21.4 5.4,6.6 15.7,14.3 29.9,22.7 -55.3,-11.8 -107.3,-15.8 -97.6,-8 6.2,5 15.7,10.4 28.1,16.1 -57.9,-7.1 -109.5,-6.7 -97.3,0.3 14.4,8.2 40.6,16.8 74.2,25.4 -0.6,-0.1 -1.2,-0.1 -1.7,-0.2 -76.5,-4 -160.1,6.3 -140.3,12.84 28.3,9.36 83.9,15.84 150.4,20.04 -45.5,5.54 -81.5,12.31 -100.3,20.26 -14.4,6.07 47,12.51 111.5,10.28 -14,4.49 -25,9.04 -32.3,13.49 -13.7,8.44 72.5,8.78 142,-3.54 -19.3,8 -33.7,15.6 -41.1,22.54 -8.1,7.47 41.4,4.92 93.5,-5.18 -13.8,8.67 -23.7,16.65 -28,23.58 -6.2,9.75 63.1,-1.85 117,-22.6 -25.9,18.93 -43.4,35.9 -46.4,48.38 -1.9,7.87 35.1,-0.61 72.7,-16.41 -21.5,39.2 -34,84.28 -24.1,82.07 11.9,-2.68 27.4,-15.53 44.6,-34.9 -22.5,50.08 -34.3,116.91 -23.5,110.9 8.9,-4.92 19.2,-16.78 30.3,-33.56 -13.3,53.6 -16.4,111.92 -7.3,103.45 6.4,-6.02 13.2,-16.7 20.2,-30.93 -4.9,51.8 -1.8,99.2 5.3,89.1 4.5,-6.44 9.1,-15.96 13.5,-28.1 0.6,53.25 8.4,99.56 14.2,87.35 6.8,-14.37 12.4,-39.41 16.9,-71.13 0.1,0.52 0.1,1.02 0.2,1.55 6.41,69.42 29.51,142.63 33.79,123.69 6.13,-27.12 5.34,-78.12 0.41,-138.64 12.5,39.86 24.92,71.04 36.23,86.57 8.64,11.85 6.93,-44.54 -4.68,-102.05 6.87,11.76 13.31,20.89 19.17,26.61 11.12,10.84 -0.8,-66.64 -24.08,-126.93 11.43,15.95 21.77,27.51 30.38,33 9.25,5.9 -0.51,-38.04 -18.9,-83.08 11.38,10.91 21.42,18.27 29.56,20.97 11.46,3.79 -11.03,-56.29 -41.24,-101.05 12.05,9.92 23.29,17.96 33.25,23.67 0.06,0.04 0.1,0.09 0.16,0.13 23.93,17.25 44.93,27.6 45.73,21.16 1.38,-11.12 -6.62,-28.48 -20.74,-49.34 44.13,35.07 109.37,66.17 106.9,54.98 -2.02,-9.17 -10.76,-21.73 -24.31,-36.55 50.99,28.28 110.43,49.22 104.78,38.82 -4.02,-7.4 -12.69,-16.6 -25,-27.14 52.05,20.47 102.31,32.69 94.3,23.44 -5.12,-5.91 -13.46,-12.79 -24.52,-20.38 55.46,16.19 106.28,23.97 95.63,15.16 -12.54,-10.37 -36.59,-23.04 -67.94,-36.87 0.56,0.13 1.12,0.29 1.68,0.41 74.28,16.24 158.21,19.37 140.04,9.75 -26.01,-13.77 -79.17,-29.07 -143.69,-43.83 45.7,1.78 82.38,0.89 102.42,-3.95 15.31,-3.7 -43.8,-19.93 -107.51,-28.01 14.6,-2.2 26.29,-4.91 34.26,-8.15 15.11,-6.14 -69.4,-20.17 -140.06,-19.1 20.53,-4.8 36.1,-10.05 44.79,-15.72 9.34,-6.09 -39.66,-11.49 -92.79,-9.83 15.28,-6.35 26.39,-12.64 32.01,-18.82 7.93,-8.6 -62.28,-8.2 -119.22,3.7 29.14,-14.6 49.53,-28.6 54.88,-40.4 2.3,-5.1 -14.52,-5.5 -38.03,-2.3 22.09,-22.2 36.23,-42.6 28.93,-43.6 -12.12,-1.6 -31.69,5.1 -55.57,17.3 41.53,-39 80.17,-97.3 67.7,-95.4 -10.2,1.6 -24.6,9.1 -41.8,20.9 34.53,-45.4 61.62,-98.7 49.81,-93.9 -8.4,3.4 -19.17,11 -31.58,21.8 26.04,-46.6 42.88,-91.9 32.17,-84.9 -6.84,4.4 -14.94,11.8 -24.03,21.6 21.57,-49.8 33.62,-95.7 23.22,-86.4 -12.24,11.1 -27.8,32.6 -45.12,60.6 0.17,-0.5 0.38,-1 0.55,-1.5 20.76,-60.7 30.24,-129 23.05,-129.2 z m -232.29,342.9 c 0.1,0.1 0.1,0.2 0.1,0.3 0.2,1.7 0.5,3.3 0.7,4.9 -1.6,-0.9 -3.2,-1.8 -5,-2.8 2,-0.3 3.5,-1.1 4.2,-2.4 z m 111.02,-6.6 c 1.44,1.3 2.99,1.9 4.61,1.7 -1.53,2.1 -2.89,4.1 -4.12,6 -0.14,-2.4 -0.32,-5 -0.49,-7.7 z m -199.62,119.47 c 2.6,0.83 5.1,1.52 7.4,2.14 -2.6,0.73 -5.4,1.53 -8.3,2.33 1.1,-1.58 1.5,-3.09 0.9,-4.47 z m 295.77,38.5 c -1.37,1.39 -1.99,2.81 -1.7,4.27 -2.4,-1.24 -4.64,-2.35 -6.79,-3.34 2.74,-0.29 5.55,-0.59 8.49,-0.93 z m -147.99,97.37 c 1.17,2.25 2.34,4.62 3.62,7.03 -1.88,-0.7 -3.57,-0.71 -5,0.04 0.5,-2.49 1.03,-4.88 1.38,-7.07 z"
         inkscape:connector-curvature="0" />
      <g
         id="g4596"
         style="opacity:0.87999998"
         transform="matrix(1.3072,-0.12188,0.26026,2.7912,-1590.6,-1980.6)">
        <path
           id="path4598"
           sodipodi:nodetypes="ccccc"
           style="fill:#e0c6aa;filter:url(#filter3036)"
           d="m 352.86,409.51 h 45.71 c 11.26,161.64 -3.67,385.28 15.63,488.97 -50.76,7.77 -56.98,8.01 -101.13,0.59 22.06,-105.57 26.18,-320.98 39.79,-489.56 z"
           inkscape:connector-curvature="0" />
        <path
           id="path4600"
           sodipodi:nodetypes="cccccccccccccccccccccccccccccc"
           style="fill:url(#linearGradient913)"
           d="m 401.32,557.82 c -19.65,4.43 -38.34,4.79 -56.41,2.53 -1.09,21.82 -2.15,43.8 -3.22,65.75 20.31,2.61 40.22,1.91 59.69,-2.19 0.05,-22.17 0.08,-44.32 -0.06,-66.09 z m 0.03,71.69 c -20.92,4.72 -40.75,4.85 -59.91,2.09 -1.08,22.12 -2.25,44.12 -3.62,65.69 21.68,3.23 42.89,2.68 63.62,-1.69 -0.15,-21.75 -0.14,-43.89 -0.09,-66.09 z m 0.12,69.18 c -22.38,5.38 -43.49,5.45 -63.87,2.32 -1.45,22.42 -3.15,44.36 -5.25,65.43 24.09,4.03 47.61,3.41 70.53,-1.9 -0.82,-21.18 -1.22,-43.27 -1.41,-65.85 z m 1.54,69.35 c -25,6.26 -48.45,5.88 -71,1.75 -2.32,22.71 -5.14,44.43 -8.63,64.65 28.91,6.19 57,5.73 84.25,-1.37 -2.23,-20.17 -3.68,-42.03 -4.62,-65.03 z m -3.04,-279.22 c -17.7,3.6 -34.64,3.94 -51.06,2.06 -1.47,21.44 -2.71,43.46 -3.84,65.72 19.11,2.32 37.85,1.63 56.22,-2 -0.17,-22.53 -0.54,-44.59 -1.32,-65.78 z m 8,347.41 c -30.24,8.34 -58.18,6.89 -85,0.65 -4.05,22.99 -6.04,42.95 -7.72,63.15 43.4,6.27 59.22,6.52 98.67,-0.37 -1.37,-18.91 -2.71,-39.78 -5.95,-63.43 z"
           inkscape:connector-curvature="0" />
      </g>
      <path
         id="path4604"
         style="opacity:0.87999998;fill:#649537"
         d="m -1005,-1008.7 c 1.1,-3.1 0.1,-5.9 -3,-8.2 -1.2,-1 -2.5,-1.8 -3.9,-2.5 5,-8.7 -1.7,-30.1 -18.4,-55.3 -22,-32.8 -67,-68.4 -69.1,-59.7 -2.2,8.6 2.4,22.8 11.5,40.2 -31.2,-30.9 -79.2,-60.3 -78.3,-51.3 0.7,7.3 6.3,17.8 15.5,30.5 -37.2,-26.1 -81.7,-47.1 -78.2,-38.5 2.4,6.1 8.3,14 17,23.2 -38.8,-20.1 -76.9,-33.5 -71.5,-25.6 3.4,5 9.3,11 17.3,17.8 -41.9,-17 -80.8,-27 -73.3,-19.3 8.8,9.1 26.4,20.9 49.6,34.2 -0.4,-0.2 -0.8,-0.3 -1.2,-0.4 -56.6,-18.5 -121.9,-27.5 -108.6,-18.5 19,12.8 59.2,28.9 108.2,45.4 -35.6,-4.9 -64.3,-7 -80.4,-4.7 -12.3,1.7 32.4,18.9 81.4,30.2 -11.6,0.6 -21,1.8 -27.5,3.7 -12.4,3.7 52.3,21.3 107.6,25.9 -16.5,2.2 -29.1,5.1 -36.5,8.9 -7.8,4 30,12 71.6,14.8 -12.5,3.8 -21.8,7.9 -26.7,12.3 -7,6.17 47.8,11.26 93.4,6.33 -24.1,9.17 -41.3,18.56 -46.6,27.44 -4.7,7.83 55.5,6.65 96.1,-5.8 30.5,-9.34 50.9,-21.58 54,-31.07 z m -106.1,-38.3 c -2.2,0 -4.4,0 -6.7,0.1 1.2,-1 1.8,-2.1 1.7,-3.3 1.7,1.2 3.4,2.2 5,3.2 z"
         inkscape:connector-curvature="0" />
      <path
         id="path4606"
         style="opacity:0.87999998;fill:#649537"
         d="m -1038.3,-963.9 c -2.7,-2.12 -5.9,-2.49 -9.6,-0.85 -1.5,0.68 -2.9,1.41 -4.1,2.26 -6.5,-7.62 -30.9,-10.7 -63.2,-6.92 -42.4,4.96 -97.5,27.94 -89.7,33.18 7.7,5.2 23.8,7.09 45.2,6.57 -44.4,13.41 -94.6,41.32 -85.3,44.19 7.7,2.35 20.6,1.92 37.3,-0.61 -42.2,20.28 -82.5,48.63 -72.4,49.23 7.1,0.43 17.6,-1.29 30.5,-4.73 -36.8,23.99 -66.8,50.12 -56.6,48.81 6.5,-0.83 15.1,-3.29 25.3,-7.12 -35.1,27.76 -62,55.94 -51,52.84 12.9,-3.65 32.3,-13.48 55.7,-27.34 -0.4,0.3 -0.7,0.59 -1,0.89 -43,39.32 -80.2,89.75 -65.5,82.34 21,-10.6 54.5,-37.32 92.3,-71.21 -20.3,27.41 -34.9,50.3 -39.6,64.52 -3.7,10.87 33,-19.13 65.5,-55.15 -4.5,9.84 -7.3,18.09 -8.2,24.27 -1.8,11.69 43.8,-34.76 72.4,-78.63 -4.9,14.51 -7.5,26.14 -6.9,33.7 0.6,8.13 25,-19.92 45.9,-53.24 -1.6,11.88 -1.6,21.21 0.7,27.08 3.1,8.26 32,-35.06 46.8,-74.74 -1.3,23.62 0.6,41.63 7.2,49.56 5.8,7 30.7,-43.21 35.9,-81.78 3.9,-28.93 0.5,-50.77 -7.6,-57.12 z m -84.4,72.36 c -0.9,1.8 -1.8,3.66 -2.8,5.6 -0.5,-1.39 -1.3,-2.32 -2.5,-2.71 2,-0.99 3.7,-1.96 5.3,-2.89 z"
         inkscape:connector-curvature="0" />
      <path
         id="path4608"
         sodipodi:nodetypes="csssc"
         style="opacity:0.87999998;fill:url(#linearGradient4734)"
         d="m -964.68,-795.28 c -19.35,49.86 -60.72,61.47 -101.82,48.85 -41.1,-12.61 -66.5,-44.71 -47.1,-94.56 19.3,-49.85 68.4,-80.07 109.5,-67.46 41.11,12.62 58.77,63.32 39.42,113.17 z"
         inkscape:connector-curvature="0" />
      <path
         id="path4610"
         sodipodi:nodetypes="csssc"
         style="opacity:0.87999998;fill:#000000"
         d="m -964.68,-795.28 c -19.35,49.86 -60.72,61.47 -101.82,48.85 -41.1,-12.61 -66.5,-44.71 -47.1,-94.56 19.3,-49.85 68.4,-80.07 109.5,-67.46 41.11,12.62 58.77,63.32 39.42,113.17 z"
         inkscape:connector-curvature="0" />
      <path
         id="path4612"
         sodipodi:nodetypes="csssc"
         style="opacity:0.87999998;fill:url(#linearGradient4736)"
         d="m -1021.2,-868.16 c -35.9,27.28 -69.2,19.75 -91.4,-4.49 -22.2,-24.24 -24.8,-56.05 11.1,-83.34 35.8,-27.29 82.9,-29.76 105.04,-5.52 22.16,24.24 11.06,66.06 -24.74,93.35 z"
         inkscape:connector-curvature="0" />
      <path
         id="path4614"
         style="opacity:0.87999998;fill:#649537"
         d="m -921.44,-984.1 c 1.17,3.07 3.74,4.85 7.78,5.06 1.66,0.09 3.24,0.06 4.8,-0.11 1.45,9.62 20.67,23.3 50.56,34.58 39.13,14.77 98.97,19.43 95.18,11.35 -3.78,-8.04 -16.66,-16.99 -35.31,-26.18 45.49,8.28 103.9,6.45 97.43,-0.28 -5.29,-5.52 -16.69,-10.99 -32.39,-16.29 47.36,1.26 97.44,-5.45 89.1,-10.52 -5.93,-3.61 -15.87,-6.82 -28.87,-9.64 44.76,-4.47 84.78,-13.87 75.29,-17.27 -6.05,-2.2 -14.77,-3.9 -25.65,-5.2 45.3,-8.5 83.81,-21.1 72.68,-23.3 -13.09,-2.6 -35.15,-2.8 -62.74,-1.1 0.43,-0.2 0.87,-0.3 1.31,-0.4 58.37,-15.1 117.89,-42.5 101.21,-42.7 -23.87,-0.2 -67.22,8.2 -118.19,20.9 32.42,-14.9 57.41,-28.4 69.24,-38.8 9.03,-7.9 -38.8,1.9 -86.37,18.9 9.18,-6.7 16.15,-12.6 20.29,-17.6 7.85,-9.5 -56.68,10.7 -105.17,36.3 12.17,-10.5 20.72,-19.6 24.33,-26.5 3.88,-7.4 -32.37,6.2 -68.47,26 7.88,-9.6 12.91,-17.9 14.2,-24 1.81,-8.7 -46.64,16.3 -81.03,44.4 14,-20.1 22.17,-36.8 20.84,-46.7 -1.18,-8.8 -49.96,24.1 -75.42,55.6 -19.1,23.6 -28.12,44.28 -24.63,53.5 z m 111.97,-25.4 c 1.77,-1.2 3.59,-2.4 5.49,-3.7 -0.37,1.5 -0.17,2.6 0.65,3.5 -2.19,0 -4.23,0.1 -6.14,0.2 z"
         inkscape:connector-curvature="0" />
      <path
         id="path4616"
         style="opacity:0.87999998;fill:#649537"
         d="m -960.24,-1016.6 c 3.59,-0.1 6.3,-1.8 7.86,-5.2 0.64,-1.4 1.14,-2.8 1.47,-4.2 10.53,1.6 31.17,-10.9 52.84,-33.4 28.37,-29.4 53.06,-79.7 43.36,-78.8 -9.63,0.9 -23.24,9.3 -39.01,22.7 23.71,-36.8 41.14,-87.8 31.97,-84.2 -7.51,2.9 -17,11.1 -27.72,23.1 16.99,-40.5 26.58,-85.8 18.52,-80.1 -5.73,4.1 -12.37,11.7 -19.63,22.1 10.21,-40 13.65,-77.3 6.9,-70.2 -4.32,4.6 -8.99,11.6 -13.91,20.6 6.11,-41.6 5.74,-78.6 -0.28,-69.7 -7.08,10.6 -14.52,29.6 -21.94,53.9 0.02,-0.4 0.05,-0.8 0.08,-1.3 3.54,-54.9 -5.38,-114.4 -11.04,-100.1 -8.11,20.6 -13.76,60.5 -17.4,108.3 -4.79,-32.4 -10.63,-58 -17.5,-71.3 -5.26,-10.1 -10.87,34.1 -8.94,80.2 -3.89,-9.9 -7.78,-17.7 -11.64,-22.8 -7.3,-9.6 -7.6,52.2 3.05,101.7 -6.92,-13.7 -13.53,-23.7 -19.5,-28.9 -6.5,-5.6 -4.3,29.8 4.44,66.9 -7.54,-9.7 -14.44,-16.5 -20.44,-19.4 -8.4,-4.2 1.6,45.1 19.59,83.1 -16.39,-18 -31.09,-30 -41.89,-31.8 -9.5,-1.6 8.6,50.3 33,81.6 18.38,23.5 36.98,37.5 47.76,37.2 z m 10.53,-104.3 c -0.62,-1.8 -1.28,-3.8 -1.98,-5.8 1.37,0.7 2.67,0.9 3.87,0.5 -0.73,1.9 -1.34,3.7 -1.89,5.3 z"
         inkscape:connector-curvature="0" />
      <path
         id="path4618"
         sodipodi:nodetypes="csssc"
         style="opacity:0.87999998;fill:#000000"
         d="m -1021.2,-868.16 c -35.9,27.28 -69.2,19.75 -91.4,-4.49 -22.2,-24.24 -24.8,-56.05 11.1,-83.34 35.8,-27.29 82.9,-29.76 105.04,-5.52 22.16,24.24 11.06,66.06 -24.74,93.35 z"
         inkscape:connector-curvature="0" />
      <path
         id="path4620"
         style="opacity:0.87999998;fill:#96c769"
         d="m -1013.1,-1005.8 c -2.2,-3.6 -5.8,-5.3 -10.9,-4.9 -2.1,0.3 -4.1,0.6 -6,1.1 -4,-11.8 -31.3,-25.2 -71.4,-33.7 -52.5,-11.1 -128.8,-5.7 -122.2,3.7 6.6,9.3 24.8,18.1 50.3,26.1 -59,-1.8 -132,11.4 -122.4,18.6 7.9,5.89 23.5,10.59 44.4,14.26 -59.8,7.33 -121.2,25.11 -109.6,29.89 8.3,3.39 21.5,5.53 38.5,6.61 -55.2,13.93 -103.4,33.19 -90.7,35.74 8.1,1.62 19.5,2.12 33.4,1.65 -55,19.16 -100.5,42.09 -86,42.79 17,0.83 44.8,-3.14 79.1,-10.38 -0.5,0.23 -1.1,0.45 -1.6,0.67 -69.9,29.85 -138.5,75.3 -117.5,72.34 30,-4.24 82.6,-22.8 143.8,-48.22 -37.4,24.68 -65.7,46.26 -78.2,61.4 -9.6,11.56 48.3,-9.66 104.2,-39.76 -10,10.01 -17.4,18.75 -21.5,25.78 -7.7,13.33 68.8,-24 124,-65.08 -12.9,15.39 -21.6,28.3 -24.6,37.6 -3.2,10 39.3,-13.81 80.1,-45.37 -7.7,13.59 -12.1,24.8 -12.3,32.73 -0.3,11.16 54.9,-29.15 91.7,-70.73 -13,27.79 -19.5,50.13 -15.6,62.29 3.5,10.72 57.4,-39.44 82.2,-83.6 18.6,-33.11 25.3,-60.63 18.8,-71.51 z m -134.9,52.81 c -2,1.79 -4,3.64 -6.1,5.58 0.1,-1.86 -0.4,-3.29 -1.6,-4.25 2.7,-0.41 5.3,-0.86 7.7,-1.33 z"
         inkscape:connector-curvature="0" />
      <path
         id="path4622"
         sodipodi:nodetypes="csssc"
         style="opacity:0.87999998;fill:url(#linearGradient4738)"
         d="m -897.13,-849.37 c -5.05,52.45 -42.08,73.1 -85.55,70.34 -43.42,-2.76 -77.02,-27.88 -71.92,-80.34 5,-52.45 44.4,-92.78 87.86,-90.03 43.47,2.76 74.65,47.57 69.61,100.03 z"
         inkscape:connector-curvature="0" />
      <path
         id="path4624"
         style="opacity:0.87999998;fill:#96c769"
         d="m -959.27,-1013.5 c -3.72,2.4 -5.24,6 -4.16,10.5 0.44,1.9 1.01,3.63 1.76,5.29 -12.4,5.27 -24.23,31.78 -29.26,69.2 -6.59,48.98 7.35,117.07 16.9,109.79 9.49,-7.24 17.13,-24.92 23.15,-49.09 4.25,53.57 26.4,117.61 33.24,107.87 5.6,-7.97 9.08,-22.68 10.89,-42.09 14.29,52.95 40.16,105.91 44.14,94.73 2.83,-7.94 3.78,-20.18 3.17,-35.67 21.02,47.93 47.11,88.7 48.55,76.87 0.91,-7.55 0.27,-17.86 -1.72,-30.41 26.69,46.97 56.52,84.86 55.76,71.67 -0.9,-15.51 -8.16,-40 -19.66,-69.96 0.3,0.44 0.6,0.88 0.9,1.33 39.93,58.93 96.75,114.45 91.3,95.92 -7.79,-26.54 -33.57,-71.4 -67.75,-123.06 30.85,30.26 57.39,52.82 75.23,61.99 13.62,7 -15.64,-42.27 -54.36,-88.55 11.98,7.64 22.29,13.11 30.39,15.79 15.35,5.09 -33.44,-58.74 -84.07,-102.74 18.16,9.5 33.16,15.53 43.62,16.9 11.25,1.47 -19.21,-33.52 -57.94,-65.98 15.64,5.05 28.34,7.49 37.01,6.58 12.21,-1.29 -37.58,-45.47 -86.84,-72.88 31.7,7.84 56.76,10.56 69.61,5.3 11.34,-4.64 -49.07,-46.2 -99.86,-62.4 -38.1,-12.2 -68.84,-14.3 -80,-6.9 z m 71.82,114.37 c 2.15,1.52 4.39,3.07 6.72,4.69 -2.04,0.15 -3.55,0.81 -4.46,2.06 -0.74,-2.43 -1.5,-4.67 -2.26,-6.75 z"
         inkscape:connector-curvature="0" />
      <path
         id="path4626"
         style="opacity:0.87999998;fill:#96c769"
         d="m -922.21,-1030.4 c 4.1,1.8 8.21,1.2 12.11,-1.9 1.61,-1.2 3.03,-2.6 4.28,-4 10.82,7.3 41.9,3.7 80.36,-10.8 50.36,-18.9 109.68,-63.6 98.24,-67.7 -11.38,-4 -31.99,-1.3 -58.12,5.8 49.77,-29.9 101.39,-79.2 88.82,-79.8 -10.28,-0.6 -26.11,3.9 -45.69,12 44.54,-37.5 83.73,-84.3 71.1,-82 -8.98,1.7 -21.24,6.9 -35.92,15.1 36.57,-40.5 63.9,-81.4 51.8,-76.8 -7.72,3 -17.37,8.6 -28.57,16.4 33.02,-44.5 55.83,-87 43.44,-79.9 -14.56,8.4 -34.86,26.3 -58.48,50.2 0.29,-0.4 0.58,-0.9 0.87,-1.3 38.45,-61 65.82,-133.8 50.43,-120.4 -22.02,19.4 -53.44,62.1 -87.53,114.9 14.97,-39.6 24.48,-71.9 25.09,-90.7 0.47,-14.3 -33.6,33.4 -60.39,87.2 1.85,-13.4 2.36,-24.3 1.2,-32.1 -2.18,-14.8 -41.28,55.7 -60.37,117.9 0.78,-19.2 -0.32,-34.2 -3.84,-43.2 -3.77,-9.7 -23.49,31.9 -36.94,78.9 -2.35,-15 -5.86,-26.4 -10.76,-32.9 -6.89,-9.1 -26.54,52.5 -30.24,105.4 -7.08,-29.2 -16.04,-50.6 -27.06,-58.2 -9.72,-6.8 -21.94,62 -14.13,110.6 5.85,36.4 18.01,62 30.3,67.3 z m 77.3,-113.8 c 0.47,-2.5 0.94,-5.1 1.43,-7.7 1.08,1.5 2.42,2.4 4.04,2.5 -2,1.8 -3.81,3.5 -5.47,5.2 z"
         inkscape:connector-curvature="0" />
      <path
         id="path4628"
         style="opacity:0.87999998;fill:#96c769"
         d="m -995.83,-1037.1 c 3.64,-2.5 5.04,-6.1 3.82,-10.6 -0.51,-1.9 -1.13,-3.6 -1.94,-5.3 12.22,-5.6 23.19,-32.4 27,-69.9 4.98,-49.1 -11.19,-116.7 -20.49,-109.2 -9.25,7.5 -16.36,25.3 -21.56,49.7 -6,-53.4 -30.2,-116.8 -36.8,-106.9 -5.3,8.1 -8.3,22.9 -9.5,42.3 -16,-52.5 -43.6,-104.7 -47.2,-93.4 -2.6,8 -3.1,20.3 -2,35.7 -22.6,-47.3 -50,-87.3 -51.1,-75.5 -0.7,7.6 0.3,17.9 2.7,30.4 -28.2,-46.2 -59.3,-83.3 -58.1,-70.1 1.4,15.4 9.5,39.7 22,69.3 -0.3,-0.4 -0.7,-0.8 -1,-1.3 -41.8,-57.8 -100.5,-111.7 -94.4,-93.3 8.6,26.3 35.9,70.4 71.8,121.1 -31.9,-29.4 -59.2,-51.2 -77.3,-59.9 -13.9,-6.6 17,41.8 57.3,87 -12.3,-7.3 -22.8,-12.5 -31,-15 -15.5,-4.6 35.4,57.8 87.5,100.4 -18.5,-9 -33.7,-14.6 -44.2,-15.7 -11.3,-1.2 20.3,33 60.1,64.3 -15.8,-4.6 -28.6,-6.7 -37.2,-5.5 -12.2,1.6 39.1,44.4 89.2,70.4 -31.9,-7 -57.1,-9 -69.8,-3.4 -11.2,5 50.6,44.8 101.9,59.7 38.5,11.1 69.3,12.4 80.27,4.7 z m -75.57,-112.3 c -2.2,-1.5 -4.5,-3 -6.9,-4.5 2.1,-0.2 3.5,-0.9 4.4,-2.2 0.8,2.4 1.7,4.6 2.5,6.7 z"
         inkscape:connector-curvature="0" />
    </g>
    <path
       id="path3317"
       style="opacity:0.57746002;fill:none;stroke:#fffeff"
       d="m 214.52,259.32 c -6.83,1.81 -12.86,-6.02 -19.59,-2.68 -4.66,1.85 -10.69,5.84 -15.61,2.68"
       inkscape:connector-curvature="0" />
    <path
       id="path3319"
       style="opacity:0.57746002;fill:none;stroke:#fffeff"
       d="m 266.65,263.21 c 6.83,1.81 12.86,-6.02 19.59,-2.68 4.66,1.85 10.69,5.84 15.61,2.68"
       inkscape:connector-curvature="0" />
    <path
       id="path3321"
       style="opacity:0.57746002;fill:none;stroke:#fffeff"
       d="m 445.9,264.27 c 6.83,1.81 12.86,-6.02 19.59,-2.68 4.66,1.85 10.69,5.84 15.61,2.68"
       inkscape:connector-curvature="0" />
    <path
       id="path3323"
       style="opacity:0.57746002;fill:none;stroke:#fffeff"
       d="m 503.18,260.03 c 6.83,1.81 12.86,-6.02 19.59,-2.68 4.66,1.84 10.68,5.84 15.6,2.68"
       inkscape:connector-curvature="0" />
    <path
       id="path3325"
       style="opacity:0.57746002;fill:none;stroke:#fffeff"
       d="m 690.9,268.27 c 6.83,1.81 12.86,-6.02 19.59,-2.68 4.66,1.85 10.69,5.84 15.61,2.68"
       inkscape:connector-curvature="0" />
    <path
       id="path3327"
       style="opacity:0.57746002;fill:none;stroke:#fffeff"
       d="m 748.18,264.03 c 6.83,1.81 12.86,-6.02 19.59,-2.68 4.66,1.84 10.68,5.84 15.6,2.68"
       inkscape:connector-curvature="0" />
    <path
       id="path3329"
       style="opacity:0.57746002;fill:none;stroke:#fffeff;stroke-width:0.8994"
       d="m 853.85,263.44 c 6.15,1.63 11.57,-5.42 17.62,-2.41 4.19,1.66 9.61,5.25 14.04,2.41"
       inkscape:connector-curvature="0" />
    <path
       id="path3331"
       style="opacity:0.57746002;fill:none;stroke:#fffeff;stroke-width:0.8994"
       d="m 905.36,259.62 c 6.15,1.63 11.57,-5.41 17.63,-2.4 4.19,1.65 9.6,5.25 14.03,2.4"
       inkscape:connector-curvature="0" />
    <path
       id="path3333"
       style="opacity:0.57746002;fill:none;stroke:#fffeff;stroke-width:0.71823001"
       d="m 191.07,248.63 c 4.91,1.3 9.24,-4.33 14.08,-1.93 3.34,1.33 7.67,4.2 11.21,1.93"
       inkscape:connector-curvature="0" />
    <path
       id="path3335"
       style="opacity:0.57746002;fill:none;stroke:#fffeff;stroke-width:0.71823001"
       d="m 147.51,249.68 c 4.91,1.3 9.23,-4.32 14.07,-1.92 3.35,1.32 7.67,4.19 11.21,1.92"
       inkscape:connector-curvature="0" />
    <path
       id="path3337"
       style="opacity:0.57746002;fill:none;stroke:#fffeff;stroke-width:0.71823001"
       d="m 84.508,253.68 c 4.909,1.3 9.236,-4.32 14.073,-1.92 3.349,1.32 7.669,4.19 11.209,1.92"
       inkscape:connector-curvature="0" />
    <path
       id="path3339"
       style="opacity:0.57746002;fill:none;stroke:#fffeff;stroke-width:0.71823001"
       d="m 444.51,245.18 c 4.91,1.3 9.23,-4.32 14.07,-1.92 3.35,1.32 7.67,4.19 11.21,1.92"
       inkscape:connector-curvature="0" />
    <path
       id="path3341"
       style="opacity:0.57746002;fill:none;stroke:#fffeff;stroke-width:0.71823001"
       d="m 382.51,251.18 c 4.91,1.3 9.23,-4.32 14.07,-1.92 3.35,1.32 7.67,4.19 11.21,1.92"
       inkscape:connector-curvature="0" />
    <path
       id="path3343"
       style="opacity:0.57746002;fill:none;stroke:#fffeff;stroke-width:0.71823001"
       d="m 546.01,248.18 c 4.91,1.3 9.23,-4.32 14.07,-1.92 3.35,1.32 7.67,4.19 11.21,1.92"
       inkscape:connector-curvature="0" />
    <path
       id="path3345"
       style="opacity:0.57746002;fill:none;stroke:#fffeff;stroke-width:0.71823001"
       d="m 599.01,256.68 c 4.91,1.3 9.23,-4.32 14.07,-1.92 3.35,1.32 7.67,4.19 11.21,1.92"
       inkscape:connector-curvature="0" />
    <path
       id="path3347"
       style="opacity:0.57746002;fill:none;stroke:#fffeff;stroke-width:0.71823001"
       d="m 676.51,252.68 c 4.91,1.3 9.23,-4.32 14.07,-1.92 3.35,1.32 7.67,4.19 11.21,1.92"
       inkscape:connector-curvature="0" />
    <path
       id="path3349"
       style="opacity:0.57746002;fill:none;stroke:#fffeff;stroke-width:0.71823001"
       d="m 732.01,253.18 c 4.91,1.3 9.23,-4.32 14.07,-1.92 3.35,1.32 7.67,4.19 11.21,1.92"
       inkscape:connector-curvature="0" />
    <path
       id="path3351"
       style="opacity:0.57746002;fill:none;stroke:#fffeff;stroke-width:0.71823001"
       d="m 811.01,250.18 c 4.91,1.3 9.23,-4.32 14.07,-1.92 3.35,1.32 7.67,4.19 11.21,1.92"
       inkscape:connector-curvature="0" />
    <path
       id="path3353"
       style="opacity:0.57746002;fill:none;stroke:#fffeff;stroke-width:0.56629002"
       d="m 346.43,244.07 c 3.87,1.03 7.28,-3.41 11.1,-1.51 2.64,1.04 6.05,3.3 8.83,1.51"
       inkscape:connector-curvature="0" />
    <path
       id="path3355"
       style="opacity:0.57746002;fill:none;stroke:#fffeff;stroke-width:0.56629002"
       d="m 267.43,245.57 c 3.87,1.03 7.28,-3.41 11.1,-1.51 2.64,1.04 6.05,3.3 8.83,1.51"
       inkscape:connector-curvature="0" />
    <path
       id="path3357"
       style="opacity:0.57746002;fill:none;stroke:#fffeff;stroke-width:0.56629002"
       d="m 100.93,243.07 c 3.87,1.03 7.28,-3.41 11.1,-1.51 2.64,1.04 6.05,3.3 8.83,1.51"
       inkscape:connector-curvature="0" />
    <path
       id="path3359"
       style="opacity:0.57746002;fill:none;stroke:#fffeff;stroke-width:0.44196999"
       d="m 484.87,242.28 c 3.02,0.8 5.68,-2.66 8.66,-1.18 2.06,0.81 4.72,2.58 6.9,1.18"
       inkscape:connector-curvature="0" />
    <path
       id="path3361"
       style="opacity:0.57746002;fill:none;stroke:#fffeff;stroke-width:0.44196999"
       d="m 586.37,242.28 c 3.02,0.8 5.68,-2.66 8.66,-1.18 2.06,0.81 4.72,2.58 6.9,1.18"
       inkscape:connector-curvature="0" />
    <path
       id="path3363"
       style="opacity:0.57746002;fill:none;stroke:#fffeff;stroke-width:0.44196999"
       d="m 653.37,241.28 c 3.02,0.8 5.68,-2.66 8.66,-1.18 2.06,0.81 4.72,2.58 6.9,1.18"
       inkscape:connector-curvature="0" />
    <path
       id="path4744"
       style="fill:#c8c8c8;filter:url(#filter3036-3);fill-opacity:1"
       transform="matrix(0.14504356,0,-0.05001635,0.041391,272.0928,309.7099)"
       d="m 1421.5,-757.81 c -0.6,0.09 -1.3,0.59 -2.2,1.5 -16.6,16.57 -38.6,51.72 -61.8,94.75 8.4,-31.33 12.9,-56.68 11.3,-70.97 -0.4,-3.96 -3.8,-1.3 -8.8,5.72 -0.7,-0.96 -1.8,-0.67 -3.3,1.09 -9,10.3 -19.4,27.23 -30.4,48.44 -0.4,-3.16 -1,-5.95 -1.8,-8.31 -1.7,-5.47 -8.9,5.77 -16.7,24.46 1.8,-16.24 2.1,-29.38 0.4,-38.15 -2.1,-10.81 -22.6,29.45 -35.9,73.31 -0.7,-10.24 -2.2,-18.46 -4.5,-24.16 -3.5,-8.56 -17.3,26.22 -25.5,65.5 -2.8,-1.45 -5.9,5.03 -8.4,15.82 -2.1,-7.23 -4.5,-12.95 -7.3,-16.85 -1.3,-1.75 -2.8,-0.77 -4.5,2.25 -1.3,-9.61 -3.4,-14.98 -5.7,-12.43 -3.6,4.1 -7.1,10.99 -10.3,20.03 -2.2,-31.21 -9.2,-59.15 -12.9,-52.57 -2.4,4.21 -4.3,10.27 -6,17.85 -6,-31.62 -16.1,-58.52 -18.7,-50.78 -3.1,9.1 -4.2,24.45 -3.9,43.68 -0.1,-0.3 -0.1,-0.63 -0.2,-0.93 -11.6,-40.76 -34.8,-82.4 -35.7,-70.78 -1.2,16.62 4.7,46.87 14.4,82.46 -12.6,-22.68 -24.2,-40.18 -33.4,-48.5 -7,-6.34 0.1,27.03 13.9,60.29 -1.9,-2.11 -3.7,-4.03 -5.5,-5.79 -5.9,-11.4 -10.9,-17.41 -12.5,-13.65 -2.7,6.02 -4,15.37 -4,27.25 -16.3,-37.14 -37.2,-68.88 -38.8,-59.85 -1.1,5.77 -0.9,13.64 0.4,23.29 -21.2,-36.53 -45.4,-66.15 -45.2,-56.04 0.2,11.9 5.6,30.82 14.4,54 -0.3,-0.34 -0.5,-0.71 -0.7,-1.06 -32.11,-45.95 -78.8,-89.65 -74.79,-75.34 5.75,20.48 26.31,55.42 53.79,95.69 -25.37,-23.82 -47.29,-41.64 -62.22,-49.04 -11.41,-5.64 11.93,32.71 43.43,68.94 -9.97,-6.09 -18.63,-10.46 -25.47,-12.69 -5.64,-1.83 -1.29,6.6 8.85,19.6 -22.11,-13.14 -38.44,-20.17 -35.81,-14.44 2.47,5.4 7.33,12.15 14.15,20 -40.39,-23.32 -79.39,-39.49 -73.25,-30.81 7.23,10.2 23.16,24.47 44.66,41.09 -0.42,-0.2 -0.83,-0.42 -1.25,-0.62 -55.65,-27.22 -122.92,-46.78 -110.91,-35.97 17.19,15.48 56.01,37.66 104.16,61.78 -36.57,-10.7 -66.55,-17.57 -84.19,-18.13 -13.47,-0.42 29.87,23.65 79.25,42.69 -12.46,-1.37 -22.71,-1.81 -30.09,-1.06 -10.36,1.05 22.33,16.5 63.37,30.03 2.86,3.81 8.05,8.3 15.13,13.31 -0.74,0.08 -1.46,0.17 -2.16,0.25 -34.18,-9.89 -65.56,-15.04 -60.06,-9.93 3.66,3.39 9.52,7.24 17.25,11.46 -37.94,-8.03 -72.43,-11.16 -64.94,-6.18 8.82,5.85 25.51,12.74 47.13,20.09 -0.38,-0.06 -0.78,-0.13 -1.16,-0.19 -50.62,-7.48 -107.31,-6.79 -94.72,-1.56 18.02,7.49 54.38,15.04 98.38,21.94 -30.85,0.33 -55.49,2.03 -68.82,5.56 -10.17,2.69 30.21,10.6 73.41,13.5 -9.75,1.78 -17.53,3.77 -22.78,5.97 -9.95,4.16 47.48,10.03 95.03,7.22 -13.66,3.52 -23.95,7.14 -29.59,10.81 -6.07,3.95 27.14,5.7 62.92,3.06 -10.1,4.29 -17.39,8.42 -20.96,12.28 -0.39,0.43 -0.46,0.83 -0.25,1.16 -11.1,8.37 -17.05,18.8 -18.71,30.13 -17.17,6.64 -27.44,12.47 -22.91,14.15 5.29,1.97 13.34,2.94 23.47,3.1 0.34,1.68 0.76,3.37 1.25,5.06 -42.1,15.4 -78.44,34.56 -68.81,35.87 7.67,1.05 19.15,0.28 33.56,-1.9 -42.83,19.97 -78.52,42.6 -67.35,42.25 7.14,-0.23 16.69,-1.8 28.22,-4.6 -41.42,23.79 -74.08,48.69 -61.84,46.66 10.64,-1.76 25.55,-6.51 43.47,-13.44 -244.9,155.32 -502.23,320.95 -691.63,434.69 -25.23,14.54 -48.61,28.42 -71.09,42.06 -20.464,11.91 -39.925,23.07 -57.969,33.13 0.274,0.73 0.513,1.35 0.781,2.06 -0.417,0.26 -0.833,0.52 -1.25,0.78 17.375,39.06 27.92,50.47 69.718,68.63 0.73,-0.52 1.52,-1.08 2.25,-1.6 0.13,0.07 0.24,0.13 0.38,0.19 2.23,-1.74 4.54,-3.54 6.84,-5.31 35.63,-25.27 74.57,-52.86 117.41,-84.94 -0.38,-0.1 -0.75,-0.18 -1.13,-0.28 2.15,-1.52 4.29,-3.06 6.47,-4.6 0.31,0.09 0.62,0.2 0.94,0.29 12.85,-9.42 26.16,-19.05 39.81,-28.82 163.51,-113.63 379.53,-255.17 581.31,-391.37 13.67,-6.37 42.82,-25.52 70.22,-47.63 -6.03,9.13 -10.2,16.86 -11.97,22.75 -3.35,11.19 51.84,-29.82 88.27,-69.81 -7.2,13.63 -11.5,24.71 -11.8,32.09 -0.3,5.95 16.5,-6.59 36.1,-26.06 4.6,-0.33 10.3,-1.72 16.8,-3.97 -0.2,3.43 0,6.4 0.7,8.82 0.1,0.42 0.3,0.72 0.6,0.9 -25.8,26.41 -43.8,51.39 -35.2,49.25 7.5,-1.86 17.6,-6.7 29.4,-13.87 -27.8,33.23 -47.7,66.25 -37.8,61.87 6.3,-2.79 14.1,-7.7 23,-14.37 -24.4,36.09 -40.3,69.992 -30.3,63.747 11.7,-7.347 27.5,-22.327 45.6,-42.157 -0.2,0.37 -0.4,0.73 -0.6,1.09 -27.7,49.001 -44.9,106.24 -32.9,94.942 17.2,-16.18 40.4,-50.804 65,-93.282 -9.4,31.138 -14.8,56.384 -13.8,70.72 0.8,10.947 25.9,-27.647 44.3,-70.38 -0.5,10.28 0,18.64 1.6,24.5 3,10.459 27.5,-38.82 39.6,-85.18 0.8,-0.86 1.7,-1.82 2.5,-2.88 1.1,11.9 3.2,21.16 6.5,26.91 1.9,3.41 6,-2.38 10.5,-13.28 4.1,25.35 10.3,43.62 14.1,38.31 3.9,-5.57 7.1,-14.63 9.7,-26.38 8,39.06 21.6,73.456 25.2,64.75 2.3,-5.55 3.8,-13.4 4.6,-23.12 12.9,39.142 30.3,71.905 32.3,61.875 2.3,-11.8 1.1,-31.257 -2.5,-55.435 0.2,0.37 0.3,0.75 0.5,1.12 21.5,50.027 57.8,99.882 57,85.159 -1.3,-21.077 -13.8,-58.513 -32,-102.25 19.7,27.16 37.3,47.934 50.3,57.374 10,7.208 -4.6,-34.044 -27.6,-74.374 8.4,7.45 15.9,13.01 22.1,16.19 9.9,5.05 -8.3,-32.97 -34.2,-69.16 0,-0.09 0.1,-0.18 0.1,-0.28 0.8,-2.32 1.1,-5.27 1,-8.75 6.2,3.74 11.8,6.45 16.4,7.84 0.6,0.19 1.1,0.21 1.5,0.1 15,16.02 28.2,26.55 28.3,21.75 0.1,-5.01 -2,-12.16 -5.8,-20.91 24.1,23.89 50,42.85 48.3,35.84 -1.1,-4.47 -3.7,-10.25 -7.8,-17.09 27.6,22.4 55.2,39.09 51.8,31.69 -3.9,-8.72 -14,-21.52 -28.1,-36.72 0.3,0.2 0.6,0.42 0.9,0.62 38.8,27.04 87.8,49.32 80.2,39.63 -10.9,-13.87 -37.4,-35.23 -70.9,-59.06 26.6,12.16 48.7,20.63 62.3,22.9 10.3,1.74 -19.4,-21.56 -54.6,-41.56 9.4,2.37 17.3,3.78 23.1,3.97 11.1,0.35 -34.5,-28 -77,-44.72 13.9,2.41 24.9,3.36 32,2.41 7.6,-1.03 -19.8,-15.96 -52,-28.07 3.9,0.1 7.4,0.06 10.6,-0.09 27.1,8.4 50.5,12 49.2,6.81 -2.1,-8.33 -13.7,-19.08 -31.3,-31.03 46.3,15.59 108.7,23.67 103.5,16.13 -4.4,-6.18 -15.2,-13.32 -30.6,-21.04 50,9.18 104.7,11.18 97.1,4.91 -5.5,-4.45 -15.3,-9.2 -28.4,-14.09 48.5,3.3 93.2,1.01 84,-3.91 -5.9,-3.14 -14.8,-6.24 -26.1,-9.28 50.1,-0.54 94,-6.08 82.7,-10.09 -13.3,-4.73 -36.7,-8.59 -66.3,-11.66 0.4,-0.03 0.9,-0.06 1.4,-0.09 65.5,-4.67 135.2,-20.94 117.5,-23.88 -25.3,-4.2 -73.3,-3.51 -130.3,0.06 37.9,-8.79 67.6,-17.52 82.6,-25.43 11.4,-6.05 -41.7,-4.72 -96.1,3.5 11.2,-4.82 20.1,-9.34 25.6,-13.44 8.9,-6.52 -41.2,-1.6 -91.6,9.81 -3.4,-0.43 -7.2,-0.81 -11.2,-1.12 49,-9.5 90.5,-22.76 78.3,-24.63 -14.3,-2.2 -38.3,-1.71 -68.2,0.63 0.4,-0.13 1,-0.22 1.4,-0.35 57.1,-14.73 115,-39.35 111.8,-43.59 -0.3,-0.44 -1.3,-0.62 -3,-0.6 -25.9,0.46 -72.8,9.68 -127.9,23.38 34.8,-15.33 61.7,-29.1 74.2,-39.47 8.9,-7.31 -34.5,1.36 -81.6,16.69 40.6,-21.49 75.7,-47.91 62.9,-45.1 -19.8,4.38 -53.7,18.68 -92.8,37.63 23.2,-17.04 40.6,-31.68 47.8,-41.5 5.5,-7.5 -31.7,8.74 -66.9,30.16 5.9,-6.6 10.2,-12.3 12.4,-16.75 3.4,-6.98 -29.1,10.26 -59.5,32.21 -2.6,-0.47 -5.6,-0.58 -8.9,-0.37 1.9,-3.56 3.3,-6.71 3.8,-9.31 1,-4.26 -11.4,2.41 -27.4,13.97 -2.8,0.81 -5.7,1.69 -8.7,2.68 0.3,-0.75 0.5,-1.51 0.6,-2.22 0.1,-0.36 0.1,-0.63 -0.1,-0.87 36.2,-26.8 69,-63.22 58.9,-62.66 -8.8,0.5 -21.8,5.28 -37.5,13.16 33.7,-32.37 61.8,-71.31 51.3,-68.44 -7.4,2.05 -17.3,7.15 -28.9,14.6 26.6,-33.87 45.4,-67.34 35.6,-62.72 -6.3,2.94 -13.8,8.03 -22.5,14.9 23.1,-36.63 37.8,-70.85 28.1,-64.37 -11.5,7.62 -26.8,22.94 -44.2,43.19 0.2,-0.38 0.4,-0.72 0.6,-1.1 23.9,-45.73 38.6,-98.27 31.7,-97.12 z m -28.4,385.12 c -0.1,0.17 -0.1,0.34 -0.2,0.5 -0.2,-0.06 -0.4,-0.12 -0.6,-0.19 0.3,-0.1 0.5,-0.2 0.8,-0.31 z m -95.8,82.35 c 1.7,0.5 3.5,1.02 5.4,1.56 -1.3,0.42 -2.1,1.07 -2.4,1.94 -1.1,-1.27 -2.1,-2.44 -3,-3.5 z"
       inkscape:connector-curvature="0" />
  </g>
  <metadata
     id="metadata88">
    <rdf:RDF>
      <cc:Work>
        <dc:format>image/svg+xml</dc:format>
        <dc:type
           rdf:resource="http://purl.org/dc/dcmitype/StillImage" />
        <cc:license
           rdf:resource="http://creativecommons.org/publicdomain/zero/1.0/" />
        <dc:publisher>
          <cc:Agent
             rdf:about="http://openclipart.org/">
            <dc:title>Openclipart</dc:title>
          </cc:Agent>
        </dc:publisher>
        <dc:title>beach</dc:title>
        <dc:date>2008-11-01T18:47:56</dc:date>
        <dc:description />
        <dc:source>https://openclipart.org/detail/19896/beach-by-rg1024</dc:source>
        <dc:creator>
          <cc:Agent>
            <dc:title>rg1024</dc:title>
          </cc:Agent>
        </dc:creator>
        <dc:subject>
          <rdf:Bag>
            <rdf:li>beach see palmera</rdf:li>
          </rdf:Bag>
        </dc:subject>
      </cc:Work>
      <cc:License
         rdf:about="http://creativecommons.org/publicdomain/zero/1.0/">
        <cc:permits
           rdf:resource="http://creativecommons.org/ns#Reproduction" />
        <cc:permits
           rdf:resource="http://creativecommons.org/ns#Distribution" />
        <cc:permits
           rdf:resource="http://creativecommons.org/ns#DerivativeWorks" />
      </cc:License>
    </rdf:RDF>
  </metadata>
</svg>
