<?xml version="1.0" encoding="UTF-8" standalone="no"?>
<!-- Created with Inkscape (http://www.inkscape.org/) -->

<svg
   xmlns:dc="http://purl.org/dc/elements/1.1/"
   xmlns:cc="http://creativecommons.org/ns#"
   xmlns:rdf="http://www.w3.org/1999/02/22-rdf-syntax-ns#"
   xmlns:svg="http://www.w3.org/2000/svg"
   xmlns="http://www.w3.org/2000/svg"
   xmlns:xlink="http://www.w3.org/1999/xlink"
   xmlns:sodipodi="http://sodipodi.sourceforge.net/DTD/sodipodi-0.dtd"
   xmlns:inkscape="http://www.inkscape.org/namespaces/inkscape"
   width="69.750343mm"
   height="131.51625mm"
   viewBox="0 0 69.750344 131.51626"
   version="1.1"
   id="svg1030"
   inkscape:version="0.92.5 (2060ec1f9f, 2020-04-08)"
   sodipodi:docname="tree.svg"
   inkscape:export-filename="/home/pierre/projects/volley/build/tree.png"
   inkscape:export-xdpi="96.56601"
   inkscape:export-ydpi="96.56601">
  <defs
     id="defs1024">
    <filter
       id="filter3036"
       inkscape:collect="always">
      <feGaussianBlur
         id="feGaussianBlur3038"
         stdDeviation="1.5956014"
         inkscape:collect="always" />
    </filter>
    <linearGradient
       id="linearGradient3044"
       y2="556.5"
       xlink:href="#linearGradient2998"
       gradientUnits="userSpaceOnUse"
       y1="975.63"
       gradientTransform="translate(-419.21,-67.68)"
       x2="794.71002"
       x1="783.04999"
       inkscape:collect="always" />
    <linearGradient
       id="linearGradient2998">
      <stop
         id="stop3000"
         style="stop-color:#be894f"
         offset="0" />
      <stop
         id="stop3002"
         style="stop-color:#553b1f"
         offset="1" />
    </linearGradient>
    <linearGradient
       id="linearGradient4588"
       y2="564.38"
       xlink:href="#linearGradient3049"
       gradientUnits="userSpaceOnUse"
       x2="227.28"
       gradientTransform="matrix(2.263,0.93215,-1.0265,2.055,198.91,-2325.5)"
       y1="564.38"
       x1="163.62"
       inkscape:collect="always" />
    <linearGradient
       id="linearGradient3049">
      <stop
         id="stop3051"
         style="stop-color:#638225"
         offset="0" />
      <stop
         id="stop3053"
         style="stop-color:#bad681"
         offset="1" />
    </linearGradient>
    <linearGradient
       id="linearGradient4584"
       y2="564.38"
       xlink:href="#linearGradient3049"
       gradientUnits="userSpaceOnUse"
       x2="227.28"
       gradientTransform="matrix(1.1278,1.4907,-1.6415,1.0241,757.2,-1944)"
       y1="564.38"
       x1="163.62"
       inkscape:collect="always" />
    <linearGradient
       id="linearGradient4577"
       y2="564.38"
       xlink:href="#linearGradient3049"
       gradientUnits="userSpaceOnUse"
       x2="227.28"
       gradientTransform="matrix(2.4483,0.3859,-0.42496,2.2233,-113.05,-2344.7)"
       y1="564.38"
       x1="163.62"
       inkscape:collect="always" />
  </defs>
  <sodipodi:namedview
     id="base"
     pagecolor="#ffffff"
     bordercolor="#666666"
     borderopacity="1.0"
     inkscape:pageopacity="0.0"
     inkscape:pageshadow="2"
     inkscape:zoom="0.35"
     inkscape:cx="-283.6004"
     inkscape:cy="265.67751"
     inkscape:document-units="mm"
     inkscape:current-layer="layer1"
     showgrid="false"
     fit-margin-top="0"
     fit-margin-left="0"
     fit-margin-right="0"
     fit-margin-bottom="0"
     inkscape:window-width="1920"
     inkscape:window-height="1149"
     inkscape:window-x="0"
     inkscape:window-y="25"
     inkscape:window-maximized="1" />
  <metadata
     id="metadata1027">
    <rdf:RDF>
      <cc:Work
         rdf:about="">
        <dc:format>image/svg+xml</dc:format>
        <dc:type
           rdf:resource="http://purl.org/dc/dcmitype/StillImage" />
        <dc:title></dc:title>
      </cc:Work>
    </rdf:RDF>
  </metadata>
  <g
     inkscape:label="Calque 1"
     inkscape:groupmode="layer"
     id="layer1"
     transform="translate(-27.410939,-87.61092)">
    <g
       id="g4672"
       transform="matrix(0.06725271,0,0,0.06214388,55.502233,188.61018)">
      <g
         id="g3040"
         transform="matrix(1.3128,0,0,2.8033,-383.68,-2183.2)">
        <path
           id="rect2956"
           sodipodi:nodetypes="ccccc"
           style="fill:#e0c6aa;filter:url(#filter3036)"
           d="m 352.86,409.51 h 45.71 c 11.26,161.64 -3.67,385.28 15.63,488.97 -50.76,7.77 -56.98,8.01 -101.13,0.59 22.06,-105.57 26.18,-320.98 39.79,-489.56 z"
           inkscape:connector-curvature="0" />
        <path
           id="path2993"
           sodipodi:nodetypes="cccccccccccccccccccccccccccccc"
           style="fill:url(#linearGradient3044)"
           d="m 401.32,557.82 c -19.65,4.43 -38.34,4.79 -56.41,2.53 -1.09,21.82 -2.15,43.8 -3.22,65.75 20.31,2.61 40.22,1.91 59.69,-2.19 0.05,-22.17 0.08,-44.32 -0.06,-66.09 z m 0.03,71.69 c -20.92,4.72 -40.75,4.85 -59.91,2.09 -1.08,22.12 -2.25,44.12 -3.62,65.69 21.68,3.23 42.89,2.68 63.62,-1.69 -0.15,-21.75 -0.14,-43.89 -0.09,-66.09 z m 0.12,69.18 c -22.38,5.38 -43.49,5.45 -63.87,2.32 -1.45,22.42 -3.15,44.36 -5.25,65.43 24.09,4.03 47.61,3.41 70.53,-1.9 -0.82,-21.18 -1.22,-43.27 -1.41,-65.85 z m 1.54,69.35 c -25,6.26 -48.45,5.88 -71,1.75 -2.32,22.71 -5.14,44.43 -8.63,64.65 28.91,6.19 57,5.73 84.25,-1.37 -2.23,-20.17 -3.68,-42.03 -4.62,-65.03 z m -3.04,-279.22 c -17.7,3.6 -34.64,3.94 -51.06,2.06 -1.47,21.44 -2.71,43.46 -3.84,65.72 19.11,2.32 37.85,1.63 56.22,-2 -0.17,-22.53 -0.54,-44.59 -1.32,-65.78 z m 8,347.41 c -30.24,8.34 -58.18,6.89 -85,0.65 -4.05,22.99 -6.04,42.95 -7.72,63.15 43.4,6.27 59.22,6.52 98.67,-0.37 -1.37,-18.91 -2.71,-39.78 -5.95,-63.43 z"
           inkscape:connector-curvature="0" />
      </g>
      <path
         id="path2913"
         style="fill:#3f553c"
         d="m 326.81,-1570 c -0.74,-0.1 -1.71,0.6 -2.95,2 -18.98,21.5 -43.81,67.2 -69.73,123.2 8.9,-40.8 13.56,-73.9 11.33,-92.5 -1.69,-14.3 -28.38,36.6 -46.9,92.8 -0.18,-13.4 -1.33,-24.3 -3.65,-31.9 -4.39,-14.4 -32.64,59.6 -42.24,123.2 -2.12,-19.1 -5.48,-33.7 -10.33,-42.3 -5.22,-9.2 -18.57,34.1 -24.85,82.1 -4.6,-14.6 -9.77,-25.4 -15.61,-31.3 -1.87,-1.9 -3.86,-0.1 -5.75,4.4 -8.2,-28 -17.729,-47.6 -21.662,-41.9 -5.501,7.9 -8.775,22.5 -10.328,41.9 -14.987,-53 -41.585,-106 -45.428,-94.9 -2.731,7.9 -3.524,20.2 -2.718,35.7 -21.656,-48 -48.257,-88.9 -49.544,-77.1 -0.821,7.5 -0.052,17.9 2.097,30.4 -27.324,-47.1 -57.698,-85.1 -56.766,-71.9 1.097,15.5 8.676,40 20.579,70 -0.305,-0.4 -0.547,-0.9 -0.854,-1.3 -40.729,-59.1 -98.326,-115 -92.646,-96.4 8.14,26.5 34.55,71.5 69.427,123.3 -31.277,-30.4 -58.127,-53.1 -76.097,-62.3 -13.73,-7.1 16.16,42.3 55.519,88.7 -12.089,-7.7 -22.449,-13.2 -30.599,-15.9 -15.43,-5.2 34.176,58.9 85.423,103.1 -18.297,-9.6 -33.387,-15.7 -43.875,-17.1 -11.281,-1.6 19.674,33.6 58.862,66.2 -15.721,-5.1 -28.455,-7.6 -37.119,-6.7 -7.024,0.7 6.752,15.7 29.121,33.5 4.405,7.9 10.668,16.8 18.559,26.5 -47.593,-31.9 -115.8,-58.6 -112.21,-47.6 2.94,9 12.94,20.9 27.956,34.8 -53.746,-24.8 -115.18,-41.6 -108.49,-31.6 4.76,7.1 14.3,15.7 27.65,25.3 -54.02,-16.8 -105.38,-25.6 -96.45,-16.9 5.7,5.5 14.68,11.8 26.48,18.6 -56.99,-12.4 -108.43,-16.8 -96.91,-8.8 13.55,9.5 38.84,20.5 71.52,32.2 l -1.71,-0.3 c -75.78,-11.2 -159.97,-8.6 -140.87,-0.3 27.35,12 82.05,23.6 147.94,33.9 -45.8,1.3 -82.29,4.7 -101.81,10.9 -14.91,4.7 45.71,16.8 110.11,20.6 -14.34,3.2 -25.76,6.7 -33.39,10.4 -14.45,7.2 71.3,15.5 141.72,9.7 -20.01,6.1 -35,12.4 -43.1,18.6 -8.7,6.7 40.78,8.7 93.656,3.5 -14.616,7.4 -25.136,14.4 -30.126,20.9 -7.04,9.1 63.012,4 118.65,-11.6 -27.616,16.4 -46.559,31.7 -50.706,43.8 -2.617,7.7 34.933,2.7 73.849,-9.6 -24.985,37.1 -41.682,80.8 -31.605,79.51 12.166,-1.55 28.742,-12.91 47.68,-30.61 -27.098,47.78 -45.058,113.23 -33.702,108.25 9.2984,-4.07 20.671,-14.92 33.313,-30.6 -18.263,52.13 -26.7,109.91 -16.928,102.32 6.943,-5.4 14.7,-15.4 23.063,-28.91 -9.696,51.12 -11.024,98.6 -3.028,89.2 5.103,-6 10.486,-15.05 15.997,-26.72 -4.352,53.06 -0.854,99.9 6.057,88.28 8.13,-13.67 16.011,-38.08 23.451,-69.24 -0.001,0.52 0,1.02 0,1.55 -0.015,69.72 16.189,144.76 22.209,126.29 8.62,-26.43 12.57,-77.28 13.28,-138 8.74,40.85 18.21,73.04 28.03,89.56 7.5,12.61 11.03,-43.7 4.82,-102.04 5.74,12.35 11.31,22.04 16.62,28.28 10.05,11.82 5.38,-66.43 -12.2,-128.63 9.9,16.95 19.13,29.42 27.18,35.68 8.67,6.74 3.03,-37.92 -11.1,-84.48 10.32,11.93 19.64,20.19 27.49,23.63 11.06,4.84 -5.76,-57.07 -31.69,-104.42 11.09,11 21.53,20 30.91,26.64 0.06,0.04 0.1,0.1 0.16,0.14 22.22,19.4 42.17,31.65 43.56,25.31 2.41,-10.94 -3.95,-28.97 -16.07,-51.09 40.69,39.05 102.75,76.08 101.34,64.7 -1.16,-9.31 -8.7,-22.62 -20.82,-38.64 48.15,32.89 105.39,59.26 100.72,48.37 -3.31,-7.73 -11.09,-17.7 -22.36,-29.33 49.92,25.21 98.83,42.04 91.71,32.08 -4.55,-6.35 -12.22,-13.98 -22.52,-22.56 53.71,21.27 103.59,33.74 93.8,23.98 -11.51,-11.49 -34.29,-26.34 -64.22,-43.02 0.55,0.17 1.09,0.39 1.63,0.56 72.46,23.06 155.74,33.97 138.54,22.71 -24.62,-16.12 -76.13,-36.3 -139,-56.95 45.34,6 81.94,8.5 102.35,5.5 15.58,-2.2 -41.76,-23.9 -104.45,-37.8 14.74,-0.9 26.63,-2.5 34.87,-5 15.61,-4.7 -67.23,-26.5 -137.68,-32 20.89,-2.9 36.88,-6.6 46.05,-11.5 9.86,-5.2 -38.42,-15.1 -91.48,-18.4 15.81,-4.9 27.45,-10.1 33.62,-15.7 8.7,-7.9 -61.24,-14 -119.04,-7.5 30.36,-11.8 51.97,-23.8 58.4,-35.1 2.75,-4.8 -13.96,-6.8 -37.67,-5.8 24.06,-20.1 40.04,-39 32.85,-40.7 -11.91,-2.7 -32.02,2.1 -56.92,12 44.97,-34.9 88.84,-89.3 76.26,-88.6 -10.31,0.6 -25.34,6.7 -43.57,16.9 38.61,-42 70.53,-92.6 58.32,-88.9 -8.67,2.6 -20.1,9.2 -33.47,18.8 30.25,-44 51.23,-87.5 39.92,-81.6 -7.22,3.8 -15.98,10.4 -25.94,19.3 26.11,-47.6 42.37,-92.2 31.14,-83.8 -13.22,9.9 -30.7,29.8 -50.55,56.1 0.22,-0.5 0.48,-1 0.7,-1.5 26.3,-58.4 42.08,-125.6 34.94,-126.5 z m -263.09,319.9 c 0.039,0.1 0.038,0.2 0.077,0.4 0.049,1.6 0.153,3.2 0.233,4.9 -1.561,-1.1 -3.083,-2.2 -4.737,-3.3 2.039,-0.1 3.532,-0.8 4.427,-2 z m 111.12,3.7 c 1.31,1.5 2.8,2.2 4.43,2.2 -1.72,2 -3.26,3.8 -4.66,5.6 0.09,-2.5 0.15,-5.1 0.23,-7.8 z m -209.82,100.5 c 2.521,1 4.897,1.9 7.144,2.8 -2.699,0.5 -5.56,1 -8.465,1.5 1.236,-1.4 1.755,-2.9 1.321,-4.3 z m 290.89,65.8 c -1.5,1.2 -2.25,2.6 -2.1,4 -2.27,-1.4 -4.39,-2.7 -6.44,-3.9 2.75,0 5.58,-0.1 8.54,-0.1 z m -156.4,83.17 c 0.955,2.34 1.905,4.81 2.955,7.33 -1.81,-0.87 -3.492,-1.04 -4.974,-0.42 0.763,-2.43 1.469,-4.76 2.019,-6.91 z"
         inkscape:connector-curvature="0" />
      <path
         id="path2924"
         style="fill:#649537"
         d="m 109.15,-1161 c 1.32,-3.1 0.66,-6 -2.22,-8.6 -1.18,-1 -2.39,-2 -3.68,-2.8 5.79,-8.2 1.13,-30.1 -13.226,-56.7 -18.796,-34.8 -60.347,-74.4 -63.27,-65.9 -2.906,8.3 0.361,22.9 7.789,41.1 -28.206,-33.7 -73.313,-67.4 -73.269,-58.4 0.036,7.4 4.675,18.4 12.662,31.9 -34.615,-29.5 -76.966,-54.6 -74.326,-45.7 1.867,6.3 7.03,14.8 14.768,24.7 -36.728,-23.5 -73.448,-40.5 -68.808,-32.2 2.97,5.4 8.28,11.9 15.55,19.4 -40.06,-20.8 -77.92,-34.4 -71.16,-26 7.94,9.9 24.38,23.3 46.25,38.6 -0.41,-0.1 -0.82,-0.3 -1.23,-0.5 -54.56,-23.6 -118.79,-38.6 -106.38,-28.5 17.77,14.6 56.23,34.3 103.51,55.3 -34.93,-8.2 -63.33,-12.9 -79.58,-12.2 -12.41,0.6 30.45,21.9 78.22,37.7 -11.62,-0.5 -21.09,-0.2 -27.77,1.1 -12.66,2.5 50.14,26 104.78,35.8 -16.63,0.6 -29.5,2.3 -37.13,5.4 -8.21,3.3 28.69,14.8 69.924,21.5 -12.833,2.6 -22.469,5.8 -27.822,9.7 -7.542,5.5 46.621,15.7 92.482,15 -24.873,6.9 -42.893,14.6 -48.982,23 -5.372,7.3 54.64,11.8 96.234,3.1 31.195,-6.4 52.724,-16.7 56.684,-25.8 z M 7.03,-1209.1 c -2.1562,-0.2 -4.3862,-0.4 -6.7116,-0.5 1.2933,-0.9 1.9877,-1.9 2.0066,-3.1 1.6449,1.3 3.2105,2.5 4.705,3.6 z"
         inkscape:connector-curvature="0" />
      <path
         id="path2926"
         style="fill:#649537"
         d="m 71.809,-1119.6 c -2.489,-2.3 -5.671,-3 -9.465,-1.7 -1.56,0.5 -2.995,1.1 -4.343,1.9 -5.78,-8.2 -29.709,-13.6 -62.291,-12.8 -42.651,1 -99.59,18.8 -92.374,24.7 7.173,5.9 23.106,9.3 44.439,10.7 -45.478,9.3 -98.105,32.4 -89.065,36.1 7.41,3.1 20.37,3.8 37.19,2.9 -43.93,16.3 -86.67,40.7 -76.69,42.3 7.1,1.1 17.68,0.3 30.9,-1.9 -38.93,20.46 -71.22,43.7 -60.93,43.35 6.57,-0.23 15.34,-1.88 25.89,-4.74 -37.53,24.38 -66.96,49.93 -55.74,47.87 13.21,-2.43 33.46,-10.42 57.96,-22.05 -0.35,0.26 -0.7,0.52 -1.05,0.79 -46.43,35.16 -88.22,81.91 -72.89,75.9 21.95,-8.6 57.77,-32.09 98.55,-62.33 -22.79,25.4 -39.41,46.84 -45.45,60.57 -4.61,10.48 34.64,-15.99 70.34,-48.83 -5.32,9.38 -8.95,17.33 -10.43,23.39 -2.79,11.49 46.934,-30.53 79.479,-71.55 -6.292,13.98 -9.932,25.32 -10.037,32.91 -0.114,8.15 26.767,-17.51 50.635,-48.76 -2.731,11.69 -3.53,20.98 -1.86,27.03 2.354,8.52 35.133,-31.94 53.595,-70.05 -3.485,23.4 -3.253,41.49 2.563,50 5.131,7.51 34.592,-40.2 43.313,-78.1 6.541,-28.4 5.228,-50.5 -2.239,-57.6 z m -90.724,64.2 c -1.079,1.7 -2.187,3.5 -3.336,5.4 -0.33,-1.5 -1.056,-2.5 -2.214,-3 2.003,-0.8 3.842,-1.6 5.55,-2.4 z"
         inkscape:connector-curvature="0" />
      <path
         id="path3061"
         sodipodi:nodetypes="csssc"
         style="fill:url(#linearGradient4588)"
         d="m 129.45,-944.85 c -23.9,47.85 -66.179,55.57 -105.94,39.19 -39.77,-16.38 -62.035,-50.69 -38.139,-98.54 23.897,-47.8 75.565,-73.4 115.33,-57 39.77,16.4 52.65,68.51 28.75,116.35 z"
         inkscape:connector-curvature="0" />
      <path
         id="path3101"
         sodipodi:nodetypes="csssc"
         style="opacity:0.35;fill:#000000"
         d="m 129.45,-944.85 c -23.9,47.85 -66.179,55.57 -105.94,39.19 -39.77,-16.38 -62.035,-50.69 -38.139,-98.54 23.897,-47.8 75.565,-73.4 115.33,-57 39.77,16.4 52.65,68.51 28.75,116.35 z"
         inkscape:connector-curvature="0" />
      <path
         id="path3057"
         sodipodi:nodetypes="csssc"
         style="fill:url(#linearGradient4584)"
         d="m 79.908,-1022.7 c -38.214,23.87 -70.748,13.3 -90.566,-12.9 -19.817,-26.2 -19.451,-58.1 18.764,-82 38.215,-23.8 85.313,-21.9 105.13,4.3 19.81,26.2 4.88,66.8 -33.332,90.6 z"
         inkscape:connector-curvature="0" />
      <path
         id="path2928"
         style="fill:#649537"
         d="m 190.04,-1128.8 c 0.87,3.1 3.27,5.1 7.27,5.7 1.64,0.3 3.22,0.4 4.79,0.4 0.55,9.7 18.42,25.1 47.13,39.1 37.59,18.3 96.74,28.5 93.71,20.1 -3.01,-8.3 -15,-18.4 -32.72,-29.3 44.53,12.4 102.86,16 97.04,8.7 -4.77,-5.9 -15.61,-12.5 -30.74,-19.2 47.03,5.7 97.53,3.6 89.69,-2.2 -5.57,-4.1 -15.17,-8.2 -27.85,-12.3 44.98,-0.2 85.7,-5.9 76.57,-10.2 -5.82,-2.8 -14.34,-5.3 -25.07,-7.5 45.91,-4.3 85.41,-13.2 74.54,-16.5 -12.79,-3.8 -34.74,-6 -62.37,-6.9 0.45,-0.1 0.89,-0.2 1.34,-0.3 59.52,-9.6 121.34,-31.4 104.74,-33.1 -23.75,-2.4 -67.69,1.9 -119.62,9.8 33.66,-11.8 59.8,-22.9 72.54,-32.1 9.73,-7.1 -38.8,-1.7 -87.74,10.7 9.75,-5.8 17.24,-11 21.83,-15.6 8.7,-8.7 -57.43,5.4 -108.09,26.3 13.1,-9.3 22.45,-17.5 26.68,-24 4.56,-7.1 -32.8,3.1 -70.59,19.5 8.75,-8.9 14.52,-16.6 16.37,-22.6 2.61,-8.5 -47.94,11.9 -84.79,36.7 15.8,-18.7 25.48,-34.6 25.08,-44.6 -0.36,-8.8 -51.98,19.3 -80.26,48.3 -21.21,21.8 -32.11,41.6 -29.48,51.1 z m 113.84,-15 c 1.87,-1 3.8,-2 5.8,-3.1 -0.49,1.4 -0.41,2.6 0.33,3.6 -2.19,-0.2 -4.22,-0.4 -6.13,-0.5 z"
         inkscape:connector-curvature="0" />
      <path
         id="path2930"
         style="fill:#649537"
         d="m 154.41,-1164.8 c 3.59,0.2 6.45,-1.2 8.32,-4.5 0.77,-1.3 1.39,-2.6 1.85,-4 10.33,2.6 32.05,-8 55.71,-28.3 30.98,-26.7 60.23,-74.5 50.5,-74.5 -9.68,0 -24.01,7.1 -40.96,19 27.03,-34.5 49.12,-83.6 39.66,-80.9 -7.75,2.2 -17.96,9.5 -29.76,20.5 20.68,-38.8 34.43,-83 25.88,-78.1 -6.08,3.5 -13.4,10.5 -21.59,20.2 13.88,-38.9 20.77,-75.7 13.38,-69.2 -4.72,4.1 -10.02,10.7 -15.76,19.2 9.95,-40.9 13.02,-77.8 6.19,-69.4 -8.02,9.8 -17.2,28 -26.85,51.6 0.07,-0.4 0.13,-0.9 0.2,-1.3 8.63,-54.3 5.27,-114.4 -1.7,-100.7 -9.99,19.8 -19.32,59 -27.38,106.2 -1.76,-32.7 -5.19,-58.7 -10.8,-72.6 -4.29,-10.6 -13.98,32.9 -16.35,79 -2.95,-10.2 -6.1,-18.3 -9.47,-23.7 -6.38,-10.3 -12.41,51.2 -6.4,101.5 -5.62,-14.3 -11.27,-24.9 -16.77,-30.6 -5.92,-6.1 -7.01,29.3 -1.75,67 -6.57,-10.4 -12.83,-17.8 -18.52,-21.2 -8.02,-4.9 -2.6,45 11.74,84.6 -14.64,-19.5 -28.14,-32.8 -38.73,-35.6 -9.344,-2.5 3.862,50.8 25.3,84.3 16.09,25.2 33.31,40.8 44.06,41.5 z m 20.18,-102.8 c -0.46,-2 -0.93,-4 -1.44,-6 1.3,0.8 2.58,1.1 3.81,0.8 -0.9,1.8 -1.68,3.5 -2.37,5.2 z"
         inkscape:connector-curvature="0" />
      <path
         id="path3105"
         sodipodi:nodetypes="csssc"
         style="opacity:0.28384004;fill:#000000"
         d="m 79.908,-1022.7 c -38.214,23.87 -70.748,13.3 -90.566,-12.9 -19.817,-26.2 -19.451,-58.1 18.764,-82 38.215,-23.8 85.313,-21.9 105.13,4.3 19.81,26.2 4.88,66.8 -33.332,90.6 z"
         inkscape:connector-curvature="0" />
      <path
         id="path2940"
         style="fill:#96c769"
         d="m 100.78,-1158.9 c -1.813,-3.8 -5.275,-5.9 -10.422,-5.9 -2.116,0 -4.119,0.2 -6.078,0.5 -2.895,-12.1 -28.791,-28 -67.953,-40.2 -51.265,-15.9 -127.71,-17.6 -122,-7.7 5.67,9.9 22.991,20.3 47.672,30.7 -58.632,-7.3 -132.54,-0.9 -123.59,7.2 7.33,6.6 22.39,12.7 42.88,18.3 -60.21,1.7 -123.03,13.7 -111.88,19.6 7.92,4.1 20.88,7.5 37.69,10.1 -56.31,8.8 -106.05,23.5 -93.63,27.2 7.93,2.4 19.17,3.9 33.12,4.7 -56.55,14 -104.02,32.6 -89.65,34.7 16.9,2.4 44.9,1 79.73,-3 -0.54,0.1 -1.09,0.3 -1.63,0.5 -72.39,23.2 -144.9,62.1 -123.72,61.1 30.31,-1.4 84.39,-15 147.67,-34.7 -39.5,21.1 -69.72,39.99 -83.59,53.91 -10.59,10.62 49.01,-5.14 107.5,-29.91 -10.9,9 -19.09,17.05 -23.8,23.67 -8.92,12.55 70.74,-17.47 129.45,-53.27 -14.3,14.1 -24.15,26.1 -27.97,35.1 -4.1,9.7 40.39,-10.1 84.019,-37.7 -8.94,12.8 -14.416,23.6 -15.369,31.4 -1.343,11.1 57.372,-23.9 97.91,-61.9 -15.539,26.5 -24.074,48.1 -21.292,60.6 2.455,11 60.739,-33.9 89.581,-75.6 21.631,-31.2 30.801,-58 25.351,-69.4 z m -139.26,40 c -2.114,1.6 -4.293,3.3 -6.558,5 0.303,-1.8 -0.077,-3.3 -1.212,-4.4 2.779,-0.1 5.357,-0.4 7.77,-0.6 z"
         inkscape:connector-curvature="0" />
      <path
         id="path3046"
         sodipodi:nodetypes="csssc"
         style="fill:url(#linearGradient4577)"
         d="m 201.73,-992.44 c -9.9,51.76 -48.69,68.88 -91.71,62.1 -43.02,-6.78 -74.063,-34.91 -64.17,-86.66 9.893,-51.8 52.839,-88.3 95.86,-81.5 43.02,6.8 69.91,54.3 60.02,106.06 z"
         inkscape:connector-curvature="0" />
      <path
         id="path2942"
         style="fill:#96c769"
         d="m 155.1,-1161.7 c -3.94,2.1 -5.78,5.5 -5.13,10.2 0.27,1.9 0.68,3.6 1.27,5.4 -12.83,4.1 -27.07,29.4 -35.56,66.2 -11.1,48.1 -3.54,117.21 6.63,110.84 10.12,-6.32 19.38,-23.22 27.61,-46.74 -0.73,53.74 15.37,119.56 23.08,110.51 6.32,-7.42 11.16,-21.75 14.75,-40.9 9.31,54.05 30.16,109.18 35.16,98.42 3.56,-7.65 5.64,-19.74 6.47,-35.22 16.48,49.67 38.67,92.69 41.2,81.04 1.61,-7.44 1.93,-17.76 1.11,-30.44 22.22,49.25 48.4,89.74 48.87,76.54 0.54,-15.53 -4.41,-40.59 -13.08,-71.48 0.25,0.47 0.51,0.93 0.77,1.4 34.29,62.38 85.7,122.94 82.01,103.98 -5.3,-27.14 -26.81,-74.21 -56.05,-128.81 27.92,32.99 52.25,57.91 69.16,68.7 12.91,8.24 -11.64,-43.54 -45.91,-93.21 11.22,8.72 20.98,15.12 28.8,18.54 14.81,6.5 -27.84,-61.59 -74.17,-110.1 17.2,11.15 31.57,18.55 41.86,20.88 11.07,2.51 -16.01,-35.16 -51.56,-71.05 15.1,6.5 27.52,10.1 36.24,10 12.28,-0.2 -33.2,-48.8 -79.7,-80.7 30.83,10.8 55.54,15.8 68.82,11.8 11.71,-3.6 -44.57,-50.6 -93.64,-71.5 -36.8,-15.6 -67.21,-20.6 -79.01,-14.3 z m 60.88,120.6 c 2.01,1.7 4.09,3.5 6.26,5.3 -2.04,0 -3.61,0.5 -4.63,1.6 -0.51,-2.4 -1.06,-4.7 -1.63,-6.9 z"
         inkscape:connector-curvature="0" />
      <path
         id="path2944"
         style="fill:#96c769"
         d="m 193.56,-1175 c 3.92,2.1 8.06,2 12.24,-0.7 1.71,-1.2 3.25,-2.3 4.63,-3.6 10.1,8.2 41.37,7.5 81.02,-3.3 51.89,-14.2 115.11,-53.2 104.09,-58.3 -10.96,-5 -31.72,-4.4 -58.4,0.3 52.33,-25.1 108.3,-69.4 95.85,-71.2 -10.19,-1.5 -26.36,1.5 -46.61,7.8 47.83,-33.3 91.2,-76.3 78.4,-75.1 -9.09,0.8 -21.79,4.9 -37.16,11.7 40.17,-36.9 71.18,-75.2 58.7,-71.6 -7.96,2.2 -18.1,6.9 -29.97,13.6 37.01,-41.2 63.67,-81.5 50.68,-75.5 -15.28,7 -37.15,22.9 -62.89,44.6 0.33,-0.5 0.65,-0.9 0.99,-1.3 43.95,-57.2 77.96,-127.1 61.38,-115.1 -23.72,17.2 -58.97,56.8 -97.82,106.2 18.58,-38 31.06,-69.3 33.41,-88 1.8,-14.2 -36.55,30.1 -68.22,81.2 3.07,-13.1 4.6,-23.9 4.17,-31.8 -0.8,-14.9 -46.27,51.6 -71.06,111.8 2.57,-19.1 2.86,-34.1 0.2,-43.4 -2.86,-10 -26.36,29.6 -44.11,75.1 -0.95,-15.2 -3.39,-26.8 -7.66,-33.7 -6.02,-9.7 -31.3,49.8 -39.9,102.1 -4.34,-29.7 -11.28,-51.8 -21.54,-60.5 -9.04,-7.6 -27.6,59.7 -24.34,108.8 2.45,36.9 12.17,63.5 23.92,69.9 z m 87.54,-106.2 c 0.7,-2.4 1.41,-4.9 2.13,-7.5 0.94,1.6 2.19,2.6 3.8,2.9 -2.16,1.6 -4.12,3.1 -5.93,4.6 z"
         inkscape:connector-curvature="0" />
      <path
         id="path2946"
         style="fill:#96c769"
         d="m 120.88,-1188.5 c 3.86,-2.2 5.59,-5.6 4.79,-10.2 -0.33,-1.9 -0.79,-3.7 -1.45,-5.4 12.7,-4.5 26.11,-30.1 33.38,-67.1 9.53,-48.5 -0.29,-117.3 -10.26,-110.7 -9.91,6.6 -18.6,23.7 -26.07,47.5 -1.02,-53.8 -19.27,-119.1 -26.682,-109.9 -6.069,7.6 -10.437,22.1 -13.404,41.3 -11.079,-53.8 -33.718,-108.3 -38.368,-97.4 -3.304,7.7 -4.984,19.9 -5.312,35.4 -18.098,-49.2 -41.686,-91.6 -43.834,-79.9 -1.3707,7.4 -1.3439,17.8 -0.1172,30.4 -23.821,-48.6 -51.314,-88.4 -51.347,-75.2 -0.04,15.6 5.731,40.5 15.414,71.1 -0.272,-0.4 -0.544,-0.9 -0.818,-1.3 -36.317,-61.5 -89.692,-120.6 -85.372,-101.8 6.18,27 29.216,73.5 60.231,127.3 -28.983,-32.3 -54.111,-56.5 -71.371,-66.8 -13.18,-7.9 13.06,43.2 48.935,91.9 -11.495,-8.4 -21.465,-14.5 -29.385,-17.8 -15.02,-6 29.839,60.9 77.737,108.1 -17.555,-10.7 -32.164,-17.7 -42.524,-19.7 -11.144,-2.3 17.152,34.7 53.865,69.6 -15.31,-6.1 -27.841,-9.3 -36.549,-9 -12.27,0.5 34.783,47.8 82.304,78.4 -31.169,-9.9 -56.03,-14.2 -69.172,-9.8 -11.596,3.8 46.206,49.3 95.936,68.8 37.298,14.7 67.853,18.8 79.443,12.2 z m -64.807,-118.9 c -2.06,-1.6 -4.197,-3.3 -6.431,-5.1 2.043,0 3.594,-0.6 4.578,-1.8 0.595,2.5 1.218,4.8 1.853,6.9 z"
         inkscape:connector-curvature="0" />
    </g>
  </g>
</svg>
